%TF.GenerationSoftware,KiCad,Pcbnew,7.0.10*%
%TF.CreationDate,2024-02-08T23:12:59+01:00*%
%TF.ProjectId,dag-supply,6461672d-7375-4707-906c-792e6b696361,rev?*%
%TF.SameCoordinates,Original*%
%TF.FileFunction,Copper,L1,Top*%
%TF.FilePolarity,Positive*%
%FSLAX46Y46*%
G04 Gerber Fmt 4.6, Leading zero omitted, Abs format (unit mm)*
G04 Created by KiCad (PCBNEW 7.0.10) date 2024-02-08 23:12:59*
%MOMM*%
%LPD*%
G01*
G04 APERTURE LIST*
%TA.AperFunction,ComponentPad*%
%ADD10R,2.400000X2.400000*%
%TD*%
%TA.AperFunction,ComponentPad*%
%ADD11C,2.400000*%
%TD*%
%TA.AperFunction,ComponentPad*%
%ADD12C,1.600000*%
%TD*%
%TA.AperFunction,ComponentPad*%
%ADD13O,1.600000X1.600000*%
%TD*%
%TA.AperFunction,ComponentPad*%
%ADD14R,1.600000X1.600000*%
%TD*%
%TA.AperFunction,ComponentPad*%
%ADD15R,1.905000X2.000000*%
%TD*%
%TA.AperFunction,ComponentPad*%
%ADD16O,1.905000X2.000000*%
%TD*%
%TA.AperFunction,ComponentPad*%
%ADD17R,0.850000X0.850000*%
%TD*%
%TA.AperFunction,ComponentPad*%
%ADD18R,2.000000X2.000000*%
%TD*%
%TA.AperFunction,ComponentPad*%
%ADD19O,2.000000X2.000000*%
%TD*%
%TA.AperFunction,ComponentPad*%
%ADD20R,1.140000X1.140000*%
%TD*%
%TA.AperFunction,ComponentPad*%
%ADD21C,1.140000*%
%TD*%
%TA.AperFunction,ViaPad*%
%ADD22C,2.000000*%
%TD*%
%TA.AperFunction,Conductor*%
%ADD23C,1.000000*%
%TD*%
%TA.AperFunction,Conductor*%
%ADD24C,2.000000*%
%TD*%
G04 APERTURE END LIST*
D10*
%TO.P,C1,1*%
%TO.N,+12V*%
X73660000Y-53260000D03*
D11*
%TO.P,C1,2*%
%TO.N,GND*%
X73660000Y-48260000D03*
%TD*%
D12*
%TO.P,R3,1*%
%TO.N,Net-(R2-Pad2)*%
X55880000Y-76200000D03*
D13*
%TO.P,R3,2*%
%TO.N,+9V*%
X71120000Y-76200000D03*
%TD*%
D12*
%TO.P,C3,1*%
%TO.N,+5V*%
X96520000Y-60880000D03*
%TO.P,C3,2*%
%TO.N,GND*%
X96520000Y-55880000D03*
%TD*%
%TO.P,C5,1*%
%TO.N,+9V*%
X83820000Y-73580000D03*
%TO.P,C5,2*%
%TO.N,GND*%
X83820000Y-68580000D03*
%TD*%
D14*
%TO.P,C4,1*%
%TO.N,+5V*%
X94020000Y-71120000D03*
D12*
%TO.P,C4,2*%
%TO.N,GND*%
X96520000Y-71120000D03*
%TD*%
D15*
%TO.P,U1,1,VI*%
%TO.N,+12V*%
X83820000Y-60960000D03*
D16*
%TO.P,U1,2,GND*%
%TO.N,GND*%
X86360000Y-60960000D03*
%TO.P,U1,3,VO*%
%TO.N,+5V*%
X88900000Y-60960000D03*
%TD*%
D17*
%TO.P,J2,1,Pin_1*%
%TO.N,+5V*%
X96520000Y-83820000D03*
%TD*%
%TO.P,J1,1,Pin_1*%
%TO.N,+9V*%
X73660000Y-83820000D03*
%TD*%
D12*
%TO.P,C2,1*%
%TO.N,+12V*%
X86360000Y-50800000D03*
%TO.P,C2,2*%
%TO.N,GND*%
X91360000Y-50800000D03*
%TD*%
%TO.P,R2,1*%
%TO.N,Net-(R1-Pad2)*%
X71120000Y-68580000D03*
D13*
%TO.P,R2,2*%
%TO.N,Net-(R2-Pad2)*%
X55880000Y-68580000D03*
%TD*%
D18*
%TO.P,D1,1,K*%
%TO.N,+9V*%
X76200000Y-76200000D03*
D19*
%TO.P,D1,2,A*%
%TO.N,GND*%
X76200000Y-66040000D03*
%TD*%
D12*
%TO.P,R1,1*%
%TO.N,+12V*%
X55880000Y-60960000D03*
D13*
%TO.P,R1,2*%
%TO.N,Net-(R1-Pad2)*%
X71120000Y-60960000D03*
%TD*%
D17*
%TO.P,J3,1,Pin_1*%
%TO.N,+12V*%
X53340000Y-83820000D03*
%TD*%
D20*
%TO.P,BR1,1*%
%TO.N,+12V*%
X62545000Y-53350000D03*
D21*
%TO.P,BR1,2*%
%TO.N,GND*%
X62545000Y-48250000D03*
%TO.P,BR1,3*%
%TO.N,VAC*%
X54295000Y-48250000D03*
%TO.P,BR1,4*%
X54295000Y-53350000D03*
%TD*%
D22*
%TO.N,GND*%
X91440000Y-78740000D03*
X86360000Y-78740000D03*
%TD*%
D23*
%TO.N,+12V*%
X55880000Y-58420000D02*
X55880000Y-60960000D01*
X60950000Y-53350000D02*
X55880000Y-58420000D01*
X53340000Y-63500000D02*
X53340000Y-83820000D01*
X78660000Y-53260000D02*
X83820000Y-58420000D01*
X62545000Y-53350000D02*
X60950000Y-53350000D01*
X62545000Y-53350000D02*
X73570000Y-53350000D01*
X83820000Y-53340000D02*
X83820000Y-60960000D01*
X83820000Y-58420000D02*
X83820000Y-60960000D01*
X55880000Y-60960000D02*
X53340000Y-63500000D01*
X73570000Y-53350000D02*
X73660000Y-53260000D01*
X73660000Y-53260000D02*
X78660000Y-53260000D01*
X86360000Y-50800000D02*
X83820000Y-53340000D01*
D24*
%TO.N,VAC*%
X54295000Y-53350000D02*
X53330000Y-53350000D01*
X54295000Y-48250000D02*
X50810000Y-48250000D01*
X53330000Y-53350000D02*
X50800000Y-55880000D01*
D23*
X50810000Y-48250000D02*
X50800000Y-48260000D01*
%TO.N,Net-(R1-Pad2)*%
X71120000Y-68580000D02*
X71120000Y-60960000D01*
%TO.N,Net-(R2-Pad2)*%
X55880000Y-68580000D02*
X55880000Y-76200000D01*
%TO.N,+5V*%
X94020000Y-71120000D02*
X88900000Y-71120000D01*
X88900000Y-71120000D02*
X88900000Y-83820000D01*
X88900000Y-83820000D02*
X96520000Y-83820000D01*
X88900000Y-60960000D02*
X88900000Y-71120000D01*
X88900000Y-60960000D02*
X96440000Y-60960000D01*
X96440000Y-60960000D02*
X96520000Y-60880000D01*
%TO.N,+9V*%
X71120000Y-76200000D02*
X76200000Y-76200000D01*
X81200000Y-76200000D02*
X83820000Y-73580000D01*
X76200000Y-76200000D02*
X81200000Y-76200000D01*
X76200000Y-83820000D02*
X73660000Y-83820000D01*
X76200000Y-76200000D02*
X76200000Y-83820000D01*
%TD*%
%TA.AperFunction,Conductor*%
%TO.N,VAC*%
G36*
X50743039Y-45739685D02*
G01*
X50788794Y-45792489D01*
X50800000Y-45844000D01*
X50800000Y-50676000D01*
X50780315Y-50743039D01*
X50727511Y-50788794D01*
X50676000Y-50800000D01*
X48384000Y-50800000D01*
X48316961Y-50780315D01*
X48271206Y-50727511D01*
X48260000Y-50676000D01*
X48260000Y-45844000D01*
X48279685Y-45776961D01*
X48332489Y-45731206D01*
X48384000Y-45720000D01*
X50676000Y-45720000D01*
X50743039Y-45739685D01*
G37*
%TD.AperFunction*%
%TD*%
%TA.AperFunction,Conductor*%
%TO.N,+9V*%
G36*
X76727227Y-81299685D02*
G01*
X76772045Y-81350484D01*
X76776882Y-81360595D01*
X76799144Y-81407126D01*
X76853120Y-81487908D01*
X76885553Y-81531233D01*
X76992592Y-81627380D01*
X77052835Y-81667632D01*
X77073369Y-81681353D01*
X77073374Y-81681356D01*
X77119901Y-81708962D01*
X77119903Y-81708963D01*
X77119905Y-81708963D01*
X77119909Y-81708966D01*
X77255594Y-81756833D01*
X77350882Y-81775787D01*
X77449500Y-81785500D01*
X78110499Y-81785500D01*
X78177538Y-81805185D01*
X78223293Y-81857989D01*
X78234499Y-81909500D01*
X78234499Y-86110497D01*
X78244212Y-86209114D01*
X78244647Y-86211299D01*
X78244605Y-86211763D01*
X78244658Y-86212118D01*
X78244572Y-86212130D01*
X78238425Y-86280891D01*
X78195567Y-86336072D01*
X78129679Y-86359322D01*
X78123032Y-86359500D01*
X71736968Y-86359500D01*
X71669929Y-86339815D01*
X71624174Y-86287011D01*
X71614230Y-86217853D01*
X71615353Y-86211299D01*
X71615787Y-86209118D01*
X71625500Y-86110500D01*
X71625500Y-84070000D01*
X72735000Y-84070000D01*
X72735000Y-84292844D01*
X72741401Y-84352372D01*
X72741403Y-84352379D01*
X72791645Y-84487086D01*
X72791649Y-84487093D01*
X72877809Y-84602187D01*
X72877812Y-84602190D01*
X72992906Y-84688350D01*
X72992913Y-84688354D01*
X73127620Y-84738596D01*
X73127627Y-84738598D01*
X73187155Y-84744999D01*
X73187172Y-84745000D01*
X73410000Y-84745000D01*
X73410000Y-84070000D01*
X72735000Y-84070000D01*
X71625500Y-84070000D01*
X71625500Y-83820000D01*
X73405102Y-83820000D01*
X73424505Y-83917545D01*
X73479760Y-84000240D01*
X73562455Y-84055495D01*
X73635376Y-84070000D01*
X73684624Y-84070000D01*
X73910000Y-84070000D01*
X73910000Y-84745000D01*
X74132828Y-84745000D01*
X74132844Y-84744999D01*
X74192372Y-84738598D01*
X74192379Y-84738596D01*
X74327086Y-84688354D01*
X74327093Y-84688350D01*
X74442187Y-84602190D01*
X74442190Y-84602187D01*
X74528350Y-84487093D01*
X74528354Y-84487086D01*
X74578596Y-84352379D01*
X74578598Y-84352372D01*
X74584999Y-84292844D01*
X74585000Y-84292827D01*
X74585000Y-84070000D01*
X73910000Y-84070000D01*
X73684624Y-84070000D01*
X73757545Y-84055495D01*
X73840240Y-84000240D01*
X73895495Y-83917545D01*
X73914898Y-83820000D01*
X73895495Y-83722455D01*
X73840240Y-83639760D01*
X73757545Y-83584505D01*
X73684624Y-83570000D01*
X73635376Y-83570000D01*
X73562455Y-83584505D01*
X73479760Y-83639760D01*
X73424505Y-83722455D01*
X73405102Y-83820000D01*
X71625500Y-83820000D01*
X71625500Y-83570000D01*
X72735000Y-83570000D01*
X73410000Y-83570000D01*
X73410000Y-82895000D01*
X73910000Y-82895000D01*
X73910000Y-83570000D01*
X74585000Y-83570000D01*
X74585000Y-83347172D01*
X74584999Y-83347155D01*
X74578598Y-83287627D01*
X74578596Y-83287620D01*
X74528354Y-83152913D01*
X74528350Y-83152906D01*
X74442190Y-83037812D01*
X74442187Y-83037809D01*
X74327093Y-82951649D01*
X74327086Y-82951645D01*
X74192379Y-82901403D01*
X74192372Y-82901401D01*
X74132844Y-82895000D01*
X73910000Y-82895000D01*
X73410000Y-82895000D01*
X73187155Y-82895000D01*
X73127627Y-82901401D01*
X73127620Y-82901403D01*
X72992913Y-82951645D01*
X72992906Y-82951649D01*
X72877812Y-83037809D01*
X72877809Y-83037812D01*
X72791649Y-83152906D01*
X72791645Y-83152913D01*
X72741403Y-83287620D01*
X72741401Y-83287627D01*
X72735000Y-83347155D01*
X72735000Y-83570000D01*
X71625500Y-83570000D01*
X71625500Y-81909500D01*
X71645185Y-81842461D01*
X71697989Y-81796706D01*
X71749500Y-81785500D01*
X74950498Y-81785500D01*
X74950500Y-81785500D01*
X75049118Y-81775787D01*
X75144406Y-81756833D01*
X75196835Y-81743451D01*
X75326626Y-81681356D01*
X75407408Y-81627380D01*
X75450733Y-81594947D01*
X75546880Y-81487908D01*
X75600856Y-81407126D01*
X75628466Y-81360591D01*
X75628466Y-81360589D01*
X75631044Y-81355077D01*
X75632684Y-81355843D01*
X75668569Y-81306077D01*
X75733586Y-81280494D01*
X75744642Y-81280000D01*
X76660188Y-81280000D01*
X76727227Y-81299685D01*
G37*
%TD.AperFunction*%
%TD*%
%TA.AperFunction,Conductor*%
%TO.N,GND*%
G36*
X96366288Y-43199454D02*
G01*
X96447070Y-43253430D01*
X96501046Y-43334212D01*
X96520000Y-43429500D01*
X96520000Y-48260000D01*
X101350500Y-48260000D01*
X101445788Y-48278954D01*
X101526570Y-48332930D01*
X101580546Y-48413712D01*
X101599500Y-48509000D01*
X101599500Y-81031000D01*
X101580546Y-81126288D01*
X101526570Y-81207070D01*
X101445788Y-81261046D01*
X101350500Y-81280000D01*
X90149500Y-81280000D01*
X90054212Y-81261046D01*
X89973430Y-81207070D01*
X89919454Y-81126288D01*
X89900500Y-81031000D01*
X89900500Y-72369500D01*
X89919454Y-72274212D01*
X89973430Y-72193430D01*
X90054212Y-72139454D01*
X90149500Y-72120500D01*
X92620250Y-72120500D01*
X92715538Y-72139454D01*
X92796320Y-72193430D01*
X92819584Y-72220279D01*
X92860197Y-72274532D01*
X92862454Y-72277546D01*
X92977669Y-72363796D01*
X93112517Y-72414091D01*
X93172127Y-72420500D01*
X94867872Y-72420499D01*
X94927483Y-72414091D01*
X94935770Y-72411000D01*
X96360370Y-72411000D01*
X96519994Y-72424966D01*
X96520006Y-72424966D01*
X96679628Y-72411000D01*
X96519999Y-72251371D01*
X96360370Y-72410999D01*
X96360370Y-72411000D01*
X94935770Y-72411000D01*
X95062331Y-72363796D01*
X95177546Y-72277546D01*
X95263796Y-72162331D01*
X95314091Y-72027483D01*
X95320500Y-71967873D01*
X95320499Y-71291265D01*
X95339453Y-71195981D01*
X95388629Y-71122383D01*
X95388629Y-71120000D01*
X96115014Y-71120000D01*
X96134835Y-71245148D01*
X96192359Y-71358045D01*
X96281955Y-71447641D01*
X96394852Y-71505165D01*
X96488519Y-71520000D01*
X96551481Y-71520000D01*
X96645148Y-71505165D01*
X96758045Y-71447641D01*
X96847641Y-71358045D01*
X96905165Y-71245148D01*
X96924986Y-71120000D01*
X96924986Y-71119999D01*
X97651371Y-71119999D01*
X97811000Y-71279628D01*
X97824966Y-71120005D01*
X97824966Y-71119994D01*
X97811000Y-70960370D01*
X97810999Y-70960370D01*
X97651371Y-71119999D01*
X96924986Y-71119999D01*
X96905165Y-70994852D01*
X96847641Y-70881955D01*
X96758045Y-70792359D01*
X96645148Y-70734835D01*
X96551481Y-70720000D01*
X96488519Y-70720000D01*
X96394852Y-70734835D01*
X96281955Y-70792359D01*
X96192359Y-70881955D01*
X96134835Y-70994852D01*
X96115014Y-71120000D01*
X95388629Y-71120000D01*
X95388629Y-71117615D01*
X95339452Y-71044016D01*
X95320499Y-70948730D01*
X95320499Y-70272134D01*
X95320499Y-70272128D01*
X95314091Y-70212517D01*
X95263796Y-70077669D01*
X95177546Y-69962454D01*
X95062331Y-69876204D01*
X94935768Y-69828999D01*
X96360369Y-69828999D01*
X96520000Y-69988629D01*
X96520001Y-69988629D01*
X96679629Y-69828999D01*
X96519999Y-69815034D01*
X96360369Y-69828999D01*
X94935768Y-69828999D01*
X94927481Y-69825908D01*
X94867873Y-69819500D01*
X93172134Y-69819500D01*
X93172130Y-69819500D01*
X93172128Y-69819501D01*
X93159314Y-69820878D01*
X93112519Y-69825908D01*
X93112515Y-69825909D01*
X92977670Y-69876203D01*
X92862455Y-69962453D01*
X92862450Y-69962458D01*
X92819584Y-70019721D01*
X92747306Y-70084644D01*
X92655685Y-70116966D01*
X92620250Y-70119500D01*
X90149500Y-70119500D01*
X90054212Y-70100546D01*
X89973430Y-70046570D01*
X89919454Y-69965788D01*
X89900500Y-69870500D01*
X89900500Y-62209500D01*
X89919454Y-62114212D01*
X89973430Y-62033430D01*
X90054212Y-61979454D01*
X90149500Y-61960500D01*
X95717252Y-61960500D01*
X95812540Y-61979454D01*
X95860072Y-62005531D01*
X95867266Y-62010568D01*
X96073504Y-62106739D01*
X96293308Y-62165635D01*
X96312984Y-62167356D01*
X96519994Y-62185468D01*
X96520000Y-62185468D01*
X96520006Y-62185468D01*
X96699668Y-62169749D01*
X96746692Y-62165635D01*
X96966496Y-62106739D01*
X97172734Y-62010568D01*
X97359139Y-61880047D01*
X97520047Y-61719139D01*
X97650568Y-61532734D01*
X97746739Y-61326496D01*
X97805635Y-61106692D01*
X97815154Y-60997886D01*
X97825468Y-60880005D01*
X97825468Y-60879994D01*
X97805636Y-60653320D01*
X97805635Y-60653308D01*
X97746739Y-60433504D01*
X97650568Y-60227266D01*
X97650565Y-60227262D01*
X97650563Y-60227258D01*
X97520050Y-60040865D01*
X97520049Y-60040864D01*
X97520047Y-60040861D01*
X97359139Y-59879953D01*
X97359135Y-59879950D01*
X97359134Y-59879949D01*
X97172741Y-59749436D01*
X97172727Y-59749428D01*
X96966499Y-59653262D01*
X96966496Y-59653261D01*
X96746694Y-59594365D01*
X96746679Y-59594363D01*
X96520006Y-59574532D01*
X96519994Y-59574532D01*
X96293320Y-59594363D01*
X96293305Y-59594365D01*
X96073503Y-59653261D01*
X96073500Y-59653262D01*
X95867272Y-59749428D01*
X95867258Y-59749436D01*
X95680865Y-59879949D01*
X95680861Y-59879952D01*
X95680861Y-59879953D01*
X95674241Y-59886572D01*
X95593463Y-59940546D01*
X95498175Y-59959500D01*
X90106849Y-59959500D01*
X90011561Y-59940546D01*
X89930779Y-59886570D01*
X89923680Y-59879171D01*
X89887463Y-59839829D01*
X89887461Y-59839827D01*
X89887458Y-59839824D01*
X89697441Y-59691929D01*
X89485667Y-59577321D01*
X89351351Y-59531211D01*
X89257913Y-59499134D01*
X89257908Y-59499133D01*
X89020399Y-59459500D01*
X88779601Y-59459500D01*
X88542092Y-59499133D01*
X88542090Y-59499133D01*
X88314333Y-59577321D01*
X88314332Y-59577321D01*
X88102558Y-59691929D01*
X87912541Y-59839825D01*
X87912535Y-59839830D01*
X87812855Y-59948112D01*
X87734373Y-60005381D01*
X87639950Y-60028256D01*
X87543959Y-60013256D01*
X87461017Y-59962664D01*
X87446466Y-59948113D01*
X87347126Y-59840202D01*
X87347121Y-59840198D01*
X87312500Y-59813250D01*
X87312500Y-62106748D01*
X87347121Y-62079802D01*
X87347129Y-62079795D01*
X87446464Y-61971888D01*
X87524946Y-61914619D01*
X87619369Y-61891743D01*
X87715359Y-61906742D01*
X87798302Y-61957334D01*
X87812850Y-61971882D01*
X87833695Y-61994525D01*
X87884287Y-62077466D01*
X87899500Y-62163168D01*
X87899500Y-71088342D01*
X87899180Y-71100955D01*
X87895631Y-71170929D01*
X87895631Y-71170947D01*
X87896628Y-71177449D01*
X87899500Y-71215155D01*
X87899500Y-81031000D01*
X87880546Y-81126288D01*
X87826570Y-81207070D01*
X87745788Y-81261046D01*
X87650500Y-81280000D01*
X86360000Y-81280000D01*
X86360000Y-81280001D01*
X86360000Y-86110500D01*
X86341046Y-86205788D01*
X86287070Y-86286570D01*
X86206288Y-86340546D01*
X86111000Y-86359500D01*
X78989000Y-86359500D01*
X78893712Y-86340546D01*
X78812930Y-86286570D01*
X78758954Y-86205788D01*
X78740000Y-86110500D01*
X78740000Y-81280001D01*
X78740000Y-81280000D01*
X78739999Y-81280000D01*
X77449500Y-81280000D01*
X77354212Y-81261046D01*
X77273430Y-81207070D01*
X77219454Y-81126288D01*
X77200500Y-81031000D01*
X77200500Y-77906877D01*
X77219454Y-77811589D01*
X77273430Y-77730807D01*
X77354212Y-77676831D01*
X77362455Y-77673587D01*
X77442331Y-77643796D01*
X77557546Y-77557546D01*
X77643796Y-77442331D01*
X77673577Y-77362485D01*
X77673578Y-77362483D01*
X77724636Y-77279827D01*
X77803440Y-77223002D01*
X77897991Y-77200659D01*
X77906878Y-77200500D01*
X81184134Y-77200500D01*
X81190441Y-77200580D01*
X81276360Y-77202757D01*
X81276360Y-77202756D01*
X81276363Y-77202757D01*
X81329751Y-77193187D01*
X81348462Y-77190562D01*
X81402438Y-77185074D01*
X81423892Y-77178342D01*
X81454511Y-77170826D01*
X81476653Y-77166858D01*
X81527047Y-77146727D01*
X81544811Y-77140403D01*
X81596588Y-77124159D01*
X81616251Y-77113244D01*
X81644732Y-77099719D01*
X81647744Y-77098515D01*
X81665617Y-77091377D01*
X81710908Y-77061527D01*
X81727073Y-77051733D01*
X81774502Y-77025409D01*
X81791575Y-77010751D01*
X81816734Y-76991781D01*
X81835519Y-76979402D01*
X81873875Y-76941045D01*
X81887738Y-76928196D01*
X81928895Y-76892866D01*
X81942666Y-76875074D01*
X81963485Y-76851434D01*
X83875865Y-74939054D01*
X83956644Y-74885081D01*
X84030230Y-74867075D01*
X84046692Y-74865635D01*
X84266496Y-74806739D01*
X84472734Y-74710568D01*
X84659139Y-74580047D01*
X84820047Y-74419139D01*
X84950568Y-74232734D01*
X85046739Y-74026496D01*
X85105635Y-73806692D01*
X85125468Y-73580000D01*
X85125468Y-73579994D01*
X85105636Y-73353320D01*
X85105635Y-73353308D01*
X85046739Y-73133504D01*
X84950568Y-72927266D01*
X84950565Y-72927262D01*
X84950563Y-72927258D01*
X84820050Y-72740865D01*
X84820049Y-72740864D01*
X84820047Y-72740861D01*
X84659139Y-72579953D01*
X84659135Y-72579950D01*
X84659134Y-72579949D01*
X84472741Y-72449436D01*
X84472727Y-72449428D01*
X84266499Y-72353262D01*
X84266496Y-72353261D01*
X84046694Y-72294365D01*
X84046679Y-72294363D01*
X83820006Y-72274532D01*
X83819994Y-72274532D01*
X83593320Y-72294363D01*
X83593305Y-72294365D01*
X83373503Y-72353261D01*
X83373500Y-72353262D01*
X83167272Y-72449428D01*
X83167258Y-72449436D01*
X82980865Y-72579949D01*
X82819949Y-72740865D01*
X82689436Y-72927258D01*
X82689428Y-72927272D01*
X82593262Y-73133500D01*
X82593261Y-73133503D01*
X82534364Y-73353311D01*
X82534363Y-73353316D01*
X82532924Y-73369770D01*
X82505737Y-73463043D01*
X82460942Y-73524135D01*
X80858510Y-75126569D01*
X80777728Y-75180546D01*
X80682440Y-75199500D01*
X77906877Y-75199500D01*
X77811589Y-75180546D01*
X77730807Y-75126570D01*
X77676831Y-75045788D01*
X77673577Y-75037517D01*
X77643796Y-74957669D01*
X77557546Y-74842454D01*
X77442331Y-74756204D01*
X77362117Y-74726286D01*
X77307481Y-74705908D01*
X77247873Y-74699500D01*
X75152134Y-74699500D01*
X75152130Y-74699500D01*
X75152128Y-74699501D01*
X75139314Y-74700878D01*
X75092519Y-74705908D01*
X75092515Y-74705909D01*
X74957670Y-74756203D01*
X74890166Y-74806737D01*
X74842454Y-74842454D01*
X74788622Y-74914365D01*
X74756203Y-74957671D01*
X74726422Y-75037517D01*
X74675364Y-75120173D01*
X74596560Y-75176998D01*
X74502009Y-75199341D01*
X74493122Y-75199500D01*
X72037001Y-75199500D01*
X71941713Y-75180546D01*
X71894181Y-75154469D01*
X71772741Y-75069436D01*
X71772727Y-75069428D01*
X71566499Y-74973262D01*
X71566496Y-74973261D01*
X71346694Y-74914365D01*
X71346679Y-74914363D01*
X71120006Y-74894532D01*
X71119994Y-74894532D01*
X70893320Y-74914363D01*
X70893305Y-74914365D01*
X70673503Y-74973261D01*
X70673500Y-74973262D01*
X70467272Y-75069428D01*
X70467258Y-75069436D01*
X70280865Y-75199949D01*
X70119949Y-75360865D01*
X69989436Y-75547258D01*
X69989428Y-75547272D01*
X69893262Y-75753500D01*
X69893261Y-75753503D01*
X69834365Y-75973305D01*
X69834363Y-75973320D01*
X69814532Y-76199994D01*
X69814532Y-76200005D01*
X69834363Y-76426679D01*
X69834365Y-76426694D01*
X69893261Y-76646496D01*
X69893262Y-76646499D01*
X69989428Y-76852727D01*
X69989436Y-76852741D01*
X70119949Y-77039134D01*
X70119953Y-77039139D01*
X70280861Y-77200047D01*
X70280864Y-77200049D01*
X70280865Y-77200050D01*
X70467258Y-77330563D01*
X70467262Y-77330565D01*
X70467266Y-77330568D01*
X70673504Y-77426739D01*
X70893308Y-77485635D01*
X70912984Y-77487356D01*
X71119994Y-77505468D01*
X71120000Y-77505468D01*
X71120006Y-77505468D01*
X71299668Y-77489749D01*
X71346692Y-77485635D01*
X71566496Y-77426739D01*
X71772734Y-77330568D01*
X71805703Y-77307483D01*
X71894181Y-77245531D01*
X71983108Y-77206402D01*
X72037001Y-77200500D01*
X74493123Y-77200500D01*
X74588411Y-77219454D01*
X74669193Y-77273430D01*
X74723169Y-77354212D01*
X74726412Y-77362455D01*
X74741005Y-77401582D01*
X74756203Y-77442330D01*
X74756204Y-77442331D01*
X74842454Y-77557546D01*
X74957669Y-77643796D01*
X75037517Y-77673577D01*
X75120171Y-77724634D01*
X75176997Y-77803437D01*
X75199341Y-77897987D01*
X75199500Y-77906877D01*
X75199500Y-81031000D01*
X75180546Y-81126288D01*
X75126570Y-81207070D01*
X75045788Y-81261046D01*
X74950500Y-81280000D01*
X71120001Y-81280000D01*
X71120000Y-81280000D01*
X71120000Y-81280001D01*
X71120000Y-86110500D01*
X71101046Y-86205788D01*
X71047070Y-86286570D01*
X70966288Y-86340546D01*
X70871000Y-86359500D01*
X63749000Y-86359500D01*
X63653712Y-86340546D01*
X63572930Y-86286570D01*
X63518954Y-86205788D01*
X63500000Y-86110500D01*
X63500000Y-81280001D01*
X63500000Y-81280000D01*
X63499999Y-81280000D01*
X58669000Y-81280000D01*
X58573712Y-81261046D01*
X58492930Y-81207070D01*
X58438954Y-81126288D01*
X58420000Y-81031000D01*
X58420000Y-68580005D01*
X69814532Y-68580005D01*
X69834363Y-68806679D01*
X69834365Y-68806694D01*
X69893261Y-69026496D01*
X69893262Y-69026499D01*
X69989428Y-69232727D01*
X69989436Y-69232741D01*
X70119949Y-69419134D01*
X70119953Y-69419139D01*
X70280861Y-69580047D01*
X70280864Y-69580049D01*
X70280865Y-69580050D01*
X70467258Y-69710563D01*
X70467262Y-69710565D01*
X70467266Y-69710568D01*
X70673504Y-69806739D01*
X70893308Y-69865635D01*
X70912984Y-69867356D01*
X71119994Y-69885468D01*
X71120000Y-69885468D01*
X71120006Y-69885468D01*
X71285370Y-69871000D01*
X83660370Y-69871000D01*
X83819994Y-69884966D01*
X83820006Y-69884966D01*
X83979628Y-69871000D01*
X83819999Y-69711371D01*
X83660370Y-69870999D01*
X83660370Y-69871000D01*
X71285370Y-69871000D01*
X71299668Y-69869749D01*
X71346692Y-69865635D01*
X71566496Y-69806739D01*
X71772734Y-69710568D01*
X71959139Y-69580047D01*
X72120047Y-69419139D01*
X72250568Y-69232734D01*
X72346739Y-69026496D01*
X72405635Y-68806692D01*
X72425468Y-68580000D01*
X72425468Y-68579999D01*
X82515034Y-68579999D01*
X82528999Y-68739629D01*
X82688629Y-68580000D01*
X83415014Y-68580000D01*
X83434835Y-68705148D01*
X83492359Y-68818045D01*
X83581955Y-68907641D01*
X83694852Y-68965165D01*
X83788519Y-68980000D01*
X83851481Y-68980000D01*
X83945148Y-68965165D01*
X84058045Y-68907641D01*
X84147641Y-68818045D01*
X84205165Y-68705148D01*
X84224986Y-68580000D01*
X84224986Y-68579999D01*
X84951371Y-68579999D01*
X85111000Y-68739628D01*
X85124966Y-68580005D01*
X85124966Y-68579994D01*
X85111000Y-68420370D01*
X85110999Y-68420370D01*
X84951371Y-68579999D01*
X84224986Y-68579999D01*
X84205165Y-68454852D01*
X84147641Y-68341955D01*
X84058045Y-68252359D01*
X83945148Y-68194835D01*
X83851481Y-68180000D01*
X83788519Y-68180000D01*
X83694852Y-68194835D01*
X83581955Y-68252359D01*
X83492359Y-68341955D01*
X83434835Y-68454852D01*
X83415014Y-68580000D01*
X82688629Y-68580000D01*
X82688629Y-68579999D01*
X82528999Y-68420369D01*
X82515034Y-68579999D01*
X72425468Y-68579999D01*
X72425468Y-68579994D01*
X72405636Y-68353320D01*
X72405635Y-68353308D01*
X72346739Y-68133504D01*
X72250568Y-67927266D01*
X72165530Y-67805817D01*
X72126402Y-67716889D01*
X72120500Y-67662998D01*
X72120500Y-67288999D01*
X83660369Y-67288999D01*
X83820000Y-67448629D01*
X83820001Y-67448629D01*
X83979629Y-67288999D01*
X83819999Y-67275034D01*
X83660369Y-67288999D01*
X72120500Y-67288999D01*
X72120500Y-67040000D01*
X75081756Y-67040000D01*
X75180595Y-67147367D01*
X75199999Y-67162469D01*
X75200000Y-67162469D01*
X77200000Y-67162469D01*
X77219404Y-67147367D01*
X77318244Y-67040000D01*
X77200001Y-67040000D01*
X77200000Y-67040001D01*
X77200000Y-67162469D01*
X75200000Y-67162469D01*
X75200000Y-67040001D01*
X75199999Y-67040000D01*
X75081756Y-67040000D01*
X72120500Y-67040000D01*
X72120500Y-66111889D01*
X75700000Y-66111889D01*
X75740507Y-66249844D01*
X75818239Y-66370798D01*
X75926900Y-66464952D01*
X76057685Y-66524680D01*
X76164237Y-66540000D01*
X76235763Y-66540000D01*
X76342315Y-66524680D01*
X76473100Y-66464952D01*
X76581761Y-66370798D01*
X76659493Y-66249844D01*
X76700000Y-66111889D01*
X76700000Y-65968111D01*
X76659493Y-65830156D01*
X76581761Y-65709202D01*
X76473100Y-65615048D01*
X76342315Y-65555320D01*
X76235763Y-65540000D01*
X76164237Y-65540000D01*
X76057685Y-65555320D01*
X75926900Y-65615048D01*
X75818239Y-65709202D01*
X75740507Y-65830156D01*
X75700000Y-65968111D01*
X75700000Y-66111889D01*
X72120500Y-66111889D01*
X72120500Y-65040000D01*
X75081756Y-65040000D01*
X75199999Y-65040000D01*
X75200000Y-65039999D01*
X75200000Y-64917529D01*
X77200000Y-64917529D01*
X77200000Y-65039999D01*
X77200001Y-65040000D01*
X77318244Y-65040000D01*
X77318243Y-65039999D01*
X77219406Y-64932634D01*
X77219399Y-64932627D01*
X77200000Y-64917529D01*
X75200000Y-64917529D01*
X75199999Y-64917529D01*
X75180600Y-64932627D01*
X75180593Y-64932634D01*
X75081756Y-65039999D01*
X75081756Y-65040000D01*
X72120500Y-65040000D01*
X72120500Y-61877000D01*
X72139454Y-61781712D01*
X72165527Y-61734185D01*
X72250568Y-61612734D01*
X72346739Y-61406496D01*
X72405635Y-61186692D01*
X72416054Y-61067600D01*
X72425468Y-60960005D01*
X72425468Y-60959994D01*
X72405636Y-60733320D01*
X72405635Y-60733308D01*
X72346739Y-60513504D01*
X72250568Y-60307266D01*
X72250565Y-60307262D01*
X72250563Y-60307258D01*
X72120050Y-60120865D01*
X72120049Y-60120864D01*
X72120047Y-60120861D01*
X71959139Y-59959953D01*
X71959135Y-59959950D01*
X71959134Y-59959949D01*
X71772741Y-59829436D01*
X71772727Y-59829428D01*
X71566499Y-59733262D01*
X71566496Y-59733261D01*
X71346694Y-59674365D01*
X71346679Y-59674363D01*
X71120006Y-59654532D01*
X71119994Y-59654532D01*
X70893320Y-59674363D01*
X70893305Y-59674365D01*
X70673503Y-59733261D01*
X70673500Y-59733262D01*
X70467272Y-59829428D01*
X70467258Y-59829436D01*
X70280865Y-59959949D01*
X70119949Y-60120865D01*
X69989436Y-60307258D01*
X69989428Y-60307272D01*
X69893262Y-60513500D01*
X69893261Y-60513503D01*
X69834365Y-60733305D01*
X69834363Y-60733320D01*
X69814532Y-60959994D01*
X69814532Y-60960005D01*
X69834363Y-61186679D01*
X69834365Y-61186694D01*
X69893261Y-61406496D01*
X69893262Y-61406499D01*
X69989428Y-61612727D01*
X69989432Y-61612735D01*
X70023479Y-61661359D01*
X70074470Y-61734183D01*
X70113598Y-61823106D01*
X70119500Y-61877000D01*
X70119500Y-67662998D01*
X70100546Y-67758286D01*
X70074470Y-67805817D01*
X69989433Y-67927264D01*
X69989427Y-67927274D01*
X69893262Y-68133500D01*
X69893261Y-68133503D01*
X69834365Y-68353305D01*
X69834363Y-68353320D01*
X69814532Y-68579994D01*
X69814532Y-68580005D01*
X58420000Y-68580005D01*
X58420000Y-57398061D01*
X58438954Y-57302773D01*
X58492930Y-57221991D01*
X61291491Y-54423430D01*
X61372273Y-54369454D01*
X61467561Y-54350500D01*
X61652097Y-54350500D01*
X61739110Y-54366198D01*
X61867517Y-54414091D01*
X61927127Y-54420500D01*
X63162872Y-54420499D01*
X63222483Y-54414091D01*
X63350888Y-54366198D01*
X63437903Y-54350500D01*
X71718916Y-54350500D01*
X71814204Y-54369454D01*
X71894986Y-54423430D01*
X71948962Y-54504212D01*
X71961302Y-54552560D01*
X71962326Y-54552319D01*
X71965909Y-54567483D01*
X72016204Y-54702331D01*
X72102454Y-54817546D01*
X72217669Y-54903796D01*
X72352517Y-54954091D01*
X72412127Y-54960500D01*
X74907872Y-54960499D01*
X74967483Y-54954091D01*
X75102331Y-54903796D01*
X75217546Y-54817546D01*
X75303796Y-54702331D01*
X75354091Y-54567483D01*
X75360500Y-54507873D01*
X75360500Y-54507857D01*
X75360857Y-54501212D01*
X75362134Y-54501280D01*
X75379454Y-54414212D01*
X75433430Y-54333430D01*
X75514212Y-54279454D01*
X75609500Y-54260500D01*
X78142439Y-54260500D01*
X78237727Y-54279454D01*
X78318509Y-54333430D01*
X82746570Y-58761490D01*
X82800546Y-58842272D01*
X82819500Y-58937560D01*
X82819500Y-59270838D01*
X82800546Y-59366126D01*
X82746570Y-59446908D01*
X82665788Y-59500884D01*
X82657519Y-59504137D01*
X82625172Y-59516202D01*
X82509955Y-59602453D01*
X82509953Y-59602455D01*
X82423704Y-59717669D01*
X82373408Y-59852518D01*
X82367000Y-59912123D01*
X82367000Y-62007865D01*
X82367000Y-62007868D01*
X82367001Y-62007872D01*
X82367291Y-62010568D01*
X82373408Y-62067480D01*
X82373409Y-62067484D01*
X82423703Y-62202329D01*
X82423704Y-62202331D01*
X82509954Y-62317546D01*
X82625169Y-62403796D01*
X82760017Y-62454091D01*
X82819627Y-62460500D01*
X84820372Y-62460499D01*
X84879983Y-62454091D01*
X85014831Y-62403796D01*
X85130046Y-62317546D01*
X85182783Y-62247097D01*
X85255059Y-62182176D01*
X85272756Y-62172621D01*
X85407500Y-62106748D01*
X85407500Y-60997886D01*
X85806123Y-60997886D01*
X85836884Y-61145915D01*
X85906442Y-61280156D01*
X86009638Y-61390652D01*
X86138819Y-61469209D01*
X86284404Y-61510000D01*
X86397622Y-61510000D01*
X86509783Y-61494584D01*
X86648458Y-61434349D01*
X86765739Y-61338934D01*
X86852928Y-61215415D01*
X86903559Y-61072953D01*
X86913877Y-60922114D01*
X86883116Y-60774085D01*
X86813558Y-60639844D01*
X86710362Y-60529348D01*
X86581181Y-60450791D01*
X86435596Y-60410000D01*
X86322378Y-60410000D01*
X86210217Y-60425416D01*
X86071542Y-60485651D01*
X85954261Y-60581066D01*
X85867072Y-60704585D01*
X85816441Y-60847047D01*
X85806123Y-60997886D01*
X85407500Y-60997886D01*
X85407500Y-59813249D01*
X85272756Y-59747378D01*
X85195474Y-59688500D01*
X85182781Y-59672899D01*
X85169031Y-59654532D01*
X85130046Y-59602454D01*
X85014831Y-59516204D01*
X85014828Y-59516203D01*
X85014827Y-59516202D01*
X84982481Y-59504137D01*
X84899825Y-59453078D01*
X84843000Y-59374274D01*
X84820659Y-59279723D01*
X84820500Y-59270838D01*
X84820500Y-58435864D01*
X84820580Y-58429557D01*
X84822757Y-58343640D01*
X84821798Y-58331049D01*
X84822463Y-58330998D01*
X84820500Y-58308908D01*
X84820500Y-57171000D01*
X96360370Y-57171000D01*
X96519994Y-57184966D01*
X96520006Y-57184966D01*
X96679628Y-57171000D01*
X96519999Y-57011371D01*
X96360370Y-57170999D01*
X96360370Y-57171000D01*
X84820500Y-57171000D01*
X84820500Y-55879999D01*
X95215034Y-55879999D01*
X95228999Y-56039629D01*
X95388629Y-55880000D01*
X96115014Y-55880000D01*
X96134835Y-56005148D01*
X96192359Y-56118045D01*
X96281955Y-56207641D01*
X96394852Y-56265165D01*
X96488519Y-56280000D01*
X96551481Y-56280000D01*
X96645148Y-56265165D01*
X96758045Y-56207641D01*
X96847641Y-56118045D01*
X96905165Y-56005148D01*
X96924986Y-55880000D01*
X96924986Y-55879999D01*
X97651371Y-55879999D01*
X97811000Y-56039628D01*
X97824966Y-55880005D01*
X97824966Y-55879994D01*
X97811000Y-55720370D01*
X97810999Y-55720370D01*
X97651371Y-55879999D01*
X96924986Y-55879999D01*
X96905165Y-55754852D01*
X96847641Y-55641955D01*
X96758045Y-55552359D01*
X96645148Y-55494835D01*
X96551481Y-55480000D01*
X96488519Y-55480000D01*
X96394852Y-55494835D01*
X96281955Y-55552359D01*
X96192359Y-55641955D01*
X96134835Y-55754852D01*
X96115014Y-55880000D01*
X95388629Y-55880000D01*
X95388629Y-55879999D01*
X95228999Y-55720369D01*
X95215034Y-55879999D01*
X84820500Y-55879999D01*
X84820500Y-54588999D01*
X96360369Y-54588999D01*
X96520000Y-54748629D01*
X96520001Y-54748629D01*
X96679629Y-54588999D01*
X96519999Y-54575034D01*
X96360369Y-54588999D01*
X84820500Y-54588999D01*
X84820500Y-53857560D01*
X84839454Y-53762272D01*
X84893428Y-53681492D01*
X86415865Y-52159054D01*
X86496644Y-52105081D01*
X86554190Y-52091000D01*
X91200370Y-52091000D01*
X91359994Y-52104966D01*
X91360006Y-52104966D01*
X91519628Y-52091000D01*
X91359999Y-51931371D01*
X91200370Y-52090999D01*
X91200370Y-52091000D01*
X86554190Y-52091000D01*
X86570230Y-52087075D01*
X86586692Y-52085635D01*
X86806496Y-52026739D01*
X87012734Y-51930568D01*
X87199139Y-51800047D01*
X87360047Y-51639139D01*
X87490568Y-51452734D01*
X87586739Y-51246496D01*
X87645635Y-51026692D01*
X87665468Y-50800000D01*
X87665468Y-50799999D01*
X90055034Y-50799999D01*
X90068999Y-50959629D01*
X90228629Y-50800000D01*
X90955014Y-50800000D01*
X90974835Y-50925148D01*
X91032359Y-51038045D01*
X91121955Y-51127641D01*
X91234852Y-51185165D01*
X91328519Y-51200000D01*
X91391481Y-51200000D01*
X91485148Y-51185165D01*
X91598045Y-51127641D01*
X91687641Y-51038045D01*
X91745165Y-50925148D01*
X91764986Y-50800000D01*
X91764986Y-50799999D01*
X92491371Y-50799999D01*
X92651000Y-50959628D01*
X92664966Y-50800005D01*
X92664966Y-50799994D01*
X92651000Y-50640370D01*
X92650999Y-50640370D01*
X92491371Y-50799999D01*
X91764986Y-50799999D01*
X91745165Y-50674852D01*
X91687641Y-50561955D01*
X91598045Y-50472359D01*
X91485148Y-50414835D01*
X91391481Y-50400000D01*
X91328519Y-50400000D01*
X91234852Y-50414835D01*
X91121955Y-50472359D01*
X91032359Y-50561955D01*
X90974835Y-50674852D01*
X90955014Y-50800000D01*
X90228629Y-50800000D01*
X90228629Y-50799999D01*
X90068999Y-50640369D01*
X90055034Y-50799999D01*
X87665468Y-50799999D01*
X87665468Y-50799994D01*
X87645636Y-50573320D01*
X87645635Y-50573308D01*
X87586739Y-50353504D01*
X87490568Y-50147266D01*
X87490565Y-50147262D01*
X87490563Y-50147258D01*
X87360050Y-49960865D01*
X87360049Y-49960864D01*
X87360047Y-49960861D01*
X87199139Y-49799953D01*
X87199135Y-49799950D01*
X87199134Y-49799949D01*
X87012741Y-49669436D01*
X87012727Y-49669428D01*
X86806499Y-49573262D01*
X86806496Y-49573261D01*
X86586694Y-49514365D01*
X86586679Y-49514363D01*
X86525367Y-49508999D01*
X91200369Y-49508999D01*
X91360000Y-49668629D01*
X91360001Y-49668629D01*
X91519629Y-49508999D01*
X91359999Y-49495034D01*
X91200369Y-49508999D01*
X86525367Y-49508999D01*
X86360006Y-49494532D01*
X86359994Y-49494532D01*
X86133320Y-49514363D01*
X86133305Y-49514365D01*
X85913503Y-49573261D01*
X85913500Y-49573262D01*
X85707272Y-49669428D01*
X85707258Y-49669436D01*
X85520865Y-49799949D01*
X85359949Y-49960865D01*
X85229436Y-50147258D01*
X85229428Y-50147272D01*
X85133262Y-50353500D01*
X85133261Y-50353503D01*
X85074364Y-50573311D01*
X85074363Y-50573315D01*
X85072924Y-50589770D01*
X85045736Y-50683043D01*
X85000942Y-50744135D01*
X83123736Y-52621341D01*
X83119223Y-52625740D01*
X83056952Y-52684935D01*
X83056948Y-52684940D01*
X83025962Y-52729458D01*
X83014575Y-52744559D01*
X82980305Y-52786588D01*
X82980299Y-52786597D01*
X82969879Y-52806544D01*
X82953556Y-52833486D01*
X82940707Y-52851947D01*
X82940702Y-52851956D01*
X82919315Y-52901792D01*
X82911203Y-52918874D01*
X82886091Y-52966948D01*
X82879905Y-52988570D01*
X82869336Y-53018256D01*
X82860459Y-53038943D01*
X82860458Y-53038944D01*
X82849541Y-53092067D01*
X82845033Y-53110437D01*
X82830113Y-53162581D01*
X82830111Y-53162591D01*
X82828402Y-53185028D01*
X82824028Y-53216219D01*
X82819500Y-53238259D01*
X82819500Y-53292490D01*
X82818781Y-53311397D01*
X82814663Y-53365474D01*
X82814663Y-53365475D01*
X82817505Y-53387792D01*
X82819500Y-53419248D01*
X82819500Y-55403439D01*
X82800546Y-55498727D01*
X82746570Y-55579509D01*
X82665788Y-55633485D01*
X82570500Y-55652439D01*
X82475212Y-55633485D01*
X82394430Y-55579509D01*
X79378662Y-52563742D01*
X79374258Y-52559224D01*
X79315058Y-52496945D01*
X79270545Y-52465964D01*
X79255435Y-52454571D01*
X79213414Y-52420307D01*
X79213409Y-52420303D01*
X79213407Y-52420302D01*
X79213404Y-52420300D01*
X79213402Y-52420299D01*
X79193460Y-52409882D01*
X79166509Y-52393553D01*
X79148055Y-52380709D01*
X79148053Y-52380708D01*
X79148049Y-52380705D01*
X79137987Y-52376387D01*
X79098202Y-52359313D01*
X79081116Y-52351199D01*
X79077863Y-52349500D01*
X79033049Y-52326091D01*
X79033048Y-52326090D01*
X79033047Y-52326090D01*
X79011421Y-52319902D01*
X78981735Y-52309333D01*
X78961054Y-52300458D01*
X78907924Y-52289539D01*
X78889555Y-52285030D01*
X78837422Y-52270113D01*
X78814979Y-52268404D01*
X78783773Y-52264027D01*
X78761741Y-52259500D01*
X78707509Y-52259500D01*
X78688603Y-52258781D01*
X78663495Y-52256869D01*
X78634525Y-52254663D01*
X78634524Y-52254663D01*
X78612208Y-52257505D01*
X78580752Y-52259500D01*
X75609499Y-52259500D01*
X75514211Y-52240546D01*
X75433429Y-52186570D01*
X75379453Y-52105788D01*
X75362134Y-52018723D01*
X75360856Y-52018792D01*
X75360499Y-52012148D01*
X75360499Y-52012128D01*
X75354091Y-51952517D01*
X75303796Y-51817669D01*
X75217546Y-51702454D01*
X75102331Y-51616204D01*
X75022117Y-51586286D01*
X74967481Y-51565908D01*
X74907873Y-51559500D01*
X72412134Y-51559500D01*
X72412130Y-51559500D01*
X72412128Y-51559501D01*
X72399314Y-51560878D01*
X72352519Y-51565908D01*
X72352515Y-51565909D01*
X72217670Y-51616203D01*
X72102455Y-51702453D01*
X72102453Y-51702455D01*
X72016204Y-51817669D01*
X71965908Y-51952518D01*
X71959500Y-52012123D01*
X71959500Y-52100500D01*
X71940546Y-52195788D01*
X71886570Y-52276570D01*
X71805788Y-52330546D01*
X71710500Y-52349500D01*
X63437903Y-52349500D01*
X63350889Y-52333801D01*
X63232216Y-52289539D01*
X63222481Y-52285908D01*
X63162873Y-52279500D01*
X61927134Y-52279500D01*
X61927130Y-52279500D01*
X61927128Y-52279501D01*
X61914314Y-52280878D01*
X61867519Y-52285908D01*
X61867515Y-52285909D01*
X61739112Y-52333801D01*
X61652097Y-52349500D01*
X60965866Y-52349500D01*
X60959559Y-52349420D01*
X60873641Y-52347242D01*
X60873637Y-52347243D01*
X60820241Y-52356812D01*
X60801516Y-52359438D01*
X60747564Y-52364925D01*
X60747554Y-52364927D01*
X60726079Y-52371664D01*
X60695491Y-52379172D01*
X60673347Y-52383141D01*
X60622965Y-52403265D01*
X60605153Y-52409606D01*
X60553411Y-52425841D01*
X60533750Y-52436754D01*
X60505286Y-52450272D01*
X60484384Y-52458621D01*
X60484371Y-52458628D01*
X60439087Y-52488472D01*
X60422918Y-52498269D01*
X60375497Y-52524591D01*
X60375494Y-52524594D01*
X60358416Y-52539254D01*
X60333267Y-52558217D01*
X60314479Y-52570600D01*
X60314477Y-52570602D01*
X60276120Y-52608957D01*
X60262252Y-52621809D01*
X60221104Y-52657134D01*
X60207330Y-52674928D01*
X60186504Y-52698574D01*
X58845070Y-54040009D01*
X58764288Y-54093985D01*
X58669000Y-54112939D01*
X58573712Y-54093985D01*
X58492930Y-54040009D01*
X58438954Y-53959227D01*
X58420000Y-53863939D01*
X58420000Y-49939252D01*
X73394960Y-49939252D01*
X73532608Y-49960000D01*
X73787392Y-49960000D01*
X73925037Y-49939252D01*
X73659999Y-49674214D01*
X73394960Y-49939252D01*
X58420000Y-49939252D01*
X58420000Y-49295519D01*
X62305580Y-49295519D01*
X62305581Y-49295520D01*
X62335242Y-49304517D01*
X62335244Y-49304518D01*
X62545000Y-49325176D01*
X62754756Y-49304518D01*
X62754758Y-49304517D01*
X62784417Y-49295520D01*
X62544999Y-49056102D01*
X62305580Y-49295519D01*
X58420000Y-49295519D01*
X58420000Y-48250000D01*
X61469823Y-48250000D01*
X61490481Y-48459752D01*
X61490484Y-48459767D01*
X61499478Y-48489418D01*
X61738897Y-48250000D01*
X62145076Y-48250000D01*
X62164650Y-48373583D01*
X62221455Y-48485069D01*
X62309931Y-48573545D01*
X62421417Y-48630350D01*
X62513912Y-48645000D01*
X62576088Y-48645000D01*
X62668583Y-48630350D01*
X62780069Y-48573545D01*
X62868545Y-48485069D01*
X62925350Y-48373583D01*
X62944924Y-48250000D01*
X62944924Y-48249999D01*
X63351102Y-48249999D01*
X63590520Y-48489417D01*
X63599517Y-48459758D01*
X63599518Y-48459756D01*
X63619191Y-48260000D01*
X71955233Y-48260000D01*
X71974273Y-48514076D01*
X71974274Y-48514080D01*
X71977512Y-48528272D01*
X72245785Y-48260000D01*
X73054823Y-48260000D01*
X73075444Y-48416631D01*
X73135901Y-48562588D01*
X73232075Y-48687925D01*
X73357412Y-48784099D01*
X73503369Y-48844556D01*
X73620677Y-48860000D01*
X73699323Y-48860000D01*
X73816631Y-48844556D01*
X73962588Y-48784099D01*
X74087925Y-48687925D01*
X74184099Y-48562589D01*
X74244556Y-48416631D01*
X74265177Y-48260000D01*
X74265177Y-48259999D01*
X75074214Y-48259999D01*
X75342487Y-48528272D01*
X75345724Y-48514085D01*
X75364766Y-48259999D01*
X75345726Y-48005917D01*
X75342487Y-47991725D01*
X75074214Y-48259999D01*
X74265177Y-48259999D01*
X74244556Y-48103369D01*
X74184099Y-47957412D01*
X74087925Y-47832075D01*
X73962588Y-47735901D01*
X73816631Y-47675444D01*
X73699323Y-47660000D01*
X73620677Y-47660000D01*
X73503369Y-47675444D01*
X73357412Y-47735901D01*
X73232075Y-47832075D01*
X73135901Y-47957411D01*
X73075444Y-48103369D01*
X73054823Y-48260000D01*
X72245785Y-48260000D01*
X71977511Y-47991726D01*
X71974274Y-48005918D01*
X71955233Y-48260000D01*
X63619191Y-48260000D01*
X63620176Y-48250000D01*
X63599518Y-48040244D01*
X63599517Y-48040242D01*
X63590520Y-48010581D01*
X63590519Y-48010580D01*
X63351102Y-48249999D01*
X62944924Y-48249999D01*
X62925350Y-48126417D01*
X62868545Y-48014931D01*
X62780069Y-47926455D01*
X62668583Y-47869650D01*
X62576088Y-47855000D01*
X62513912Y-47855000D01*
X62421417Y-47869650D01*
X62309931Y-47926455D01*
X62221455Y-48014931D01*
X62164650Y-48126417D01*
X62145076Y-48250000D01*
X61738897Y-48250000D01*
X61499479Y-48010582D01*
X61490482Y-48040243D01*
X61469823Y-48250000D01*
X58420000Y-48250000D01*
X58420000Y-47204479D01*
X62305582Y-47204479D01*
X62545000Y-47443897D01*
X62784418Y-47204478D01*
X62754767Y-47195484D01*
X62754752Y-47195481D01*
X62545000Y-47174823D01*
X62335243Y-47195482D01*
X62305582Y-47204479D01*
X58420000Y-47204479D01*
X58420000Y-46580745D01*
X73394960Y-46580745D01*
X73660000Y-46845785D01*
X73925039Y-46580745D01*
X73787399Y-46560000D01*
X73532600Y-46560000D01*
X73394960Y-46580745D01*
X58420000Y-46580745D01*
X58420000Y-43429500D01*
X58438954Y-43334212D01*
X58492930Y-43253430D01*
X58573712Y-43199454D01*
X58669000Y-43180500D01*
X96271000Y-43180500D01*
X96366288Y-43199454D01*
G37*
%TD.AperFunction*%
%TD*%
%TA.AperFunction,Conductor*%
%TO.N,VAC*%
G36*
X50743039Y-53359685D02*
G01*
X50788794Y-53412489D01*
X50800000Y-53464000D01*
X50800000Y-58296000D01*
X50780315Y-58363039D01*
X50727511Y-58408794D01*
X50676000Y-58420000D01*
X48384000Y-58420000D01*
X48316961Y-58400315D01*
X48271206Y-58347511D01*
X48260000Y-58296000D01*
X48260000Y-53464000D01*
X48279685Y-53396961D01*
X48332489Y-53351206D01*
X48384000Y-53340000D01*
X50676000Y-53340000D01*
X50743039Y-53359685D01*
G37*
%TD.AperFunction*%
%TD*%
%TA.AperFunction,Conductor*%
%TO.N,+5V*%
G36*
X89427227Y-81299685D02*
G01*
X89472045Y-81350484D01*
X89476882Y-81360595D01*
X89499144Y-81407126D01*
X89553120Y-81487908D01*
X89585553Y-81531233D01*
X89692592Y-81627380D01*
X89752835Y-81667632D01*
X89773369Y-81681353D01*
X89773374Y-81681356D01*
X89819901Y-81708962D01*
X89819903Y-81708963D01*
X89819905Y-81708963D01*
X89819909Y-81708966D01*
X89955594Y-81756833D01*
X90050882Y-81775787D01*
X90149500Y-81785500D01*
X90149502Y-81785500D01*
X101350498Y-81785500D01*
X101350500Y-81785500D01*
X101449118Y-81775787D01*
X101451299Y-81775353D01*
X101451763Y-81775394D01*
X101452118Y-81775342D01*
X101452130Y-81775427D01*
X101520891Y-81781575D01*
X101576072Y-81824433D01*
X101599322Y-81890321D01*
X101599500Y-81896968D01*
X101599500Y-86235500D01*
X101579815Y-86302539D01*
X101527011Y-86348294D01*
X101475500Y-86359500D01*
X86976968Y-86359500D01*
X86909929Y-86339815D01*
X86864174Y-86287011D01*
X86854230Y-86217853D01*
X86855353Y-86211299D01*
X86855787Y-86209118D01*
X86865500Y-86110500D01*
X86865500Y-84070000D01*
X95595000Y-84070000D01*
X95595000Y-84292844D01*
X95601401Y-84352372D01*
X95601403Y-84352379D01*
X95651645Y-84487086D01*
X95651649Y-84487093D01*
X95737809Y-84602187D01*
X95737812Y-84602190D01*
X95852906Y-84688350D01*
X95852913Y-84688354D01*
X95987620Y-84738596D01*
X95987627Y-84738598D01*
X96047155Y-84744999D01*
X96047172Y-84745000D01*
X96270000Y-84745000D01*
X96270000Y-84070000D01*
X95595000Y-84070000D01*
X86865500Y-84070000D01*
X86865500Y-83820000D01*
X96265102Y-83820000D01*
X96284505Y-83917545D01*
X96339760Y-84000240D01*
X96422455Y-84055495D01*
X96495376Y-84070000D01*
X96544624Y-84070000D01*
X96770000Y-84070000D01*
X96770000Y-84745000D01*
X96992828Y-84745000D01*
X96992844Y-84744999D01*
X97052372Y-84738598D01*
X97052379Y-84738596D01*
X97187086Y-84688354D01*
X97187093Y-84688350D01*
X97302187Y-84602190D01*
X97302190Y-84602187D01*
X97388350Y-84487093D01*
X97388354Y-84487086D01*
X97438596Y-84352379D01*
X97438598Y-84352372D01*
X97444999Y-84292844D01*
X97445000Y-84292827D01*
X97445000Y-84070000D01*
X96770000Y-84070000D01*
X96544624Y-84070000D01*
X96617545Y-84055495D01*
X96700240Y-84000240D01*
X96755495Y-83917545D01*
X96774898Y-83820000D01*
X96755495Y-83722455D01*
X96700240Y-83639760D01*
X96617545Y-83584505D01*
X96544624Y-83570000D01*
X96495376Y-83570000D01*
X96422455Y-83584505D01*
X96339760Y-83639760D01*
X96284505Y-83722455D01*
X96265102Y-83820000D01*
X86865500Y-83820000D01*
X86865500Y-83570000D01*
X95595000Y-83570000D01*
X96270000Y-83570000D01*
X96270000Y-82895000D01*
X96770000Y-82895000D01*
X96770000Y-83570000D01*
X97445000Y-83570000D01*
X97445000Y-83347172D01*
X97444999Y-83347155D01*
X97438598Y-83287627D01*
X97438596Y-83287620D01*
X97388354Y-83152913D01*
X97388350Y-83152906D01*
X97302190Y-83037812D01*
X97302187Y-83037809D01*
X97187093Y-82951649D01*
X97187086Y-82951645D01*
X97052379Y-82901403D01*
X97052372Y-82901401D01*
X96992844Y-82895000D01*
X96770000Y-82895000D01*
X96270000Y-82895000D01*
X96047155Y-82895000D01*
X95987627Y-82901401D01*
X95987620Y-82901403D01*
X95852913Y-82951645D01*
X95852906Y-82951649D01*
X95737812Y-83037809D01*
X95737809Y-83037812D01*
X95651649Y-83152906D01*
X95651645Y-83152913D01*
X95601403Y-83287620D01*
X95601401Y-83287627D01*
X95595000Y-83347155D01*
X95595000Y-83570000D01*
X86865500Y-83570000D01*
X86865500Y-81909500D01*
X86885185Y-81842461D01*
X86937989Y-81796706D01*
X86989500Y-81785500D01*
X87650498Y-81785500D01*
X87650500Y-81785500D01*
X87749118Y-81775787D01*
X87844406Y-81756833D01*
X87896835Y-81743451D01*
X88026626Y-81681356D01*
X88107408Y-81627380D01*
X88150733Y-81594947D01*
X88246880Y-81487908D01*
X88300856Y-81407126D01*
X88328466Y-81360591D01*
X88328466Y-81360589D01*
X88331044Y-81355077D01*
X88332684Y-81355843D01*
X88368569Y-81306077D01*
X88433586Y-81280494D01*
X88444642Y-81280000D01*
X89360188Y-81280000D01*
X89427227Y-81299685D01*
G37*
%TD.AperFunction*%
%TD*%
%TA.AperFunction,Conductor*%
%TO.N,+12V*%
G36*
X57946727Y-81299685D02*
G01*
X57991545Y-81350484D01*
X58017148Y-81404000D01*
X58018644Y-81407126D01*
X58072620Y-81487908D01*
X58105053Y-81531233D01*
X58212092Y-81627380D01*
X58272335Y-81667632D01*
X58292869Y-81681353D01*
X58292874Y-81681356D01*
X58339401Y-81708962D01*
X58339403Y-81708963D01*
X58339405Y-81708963D01*
X58339409Y-81708966D01*
X58475094Y-81756833D01*
X58570382Y-81775787D01*
X58669000Y-81785500D01*
X62870499Y-81785500D01*
X62937538Y-81805185D01*
X62983293Y-81857989D01*
X62994499Y-81909500D01*
X62994499Y-86110497D01*
X63004212Y-86209114D01*
X63004647Y-86211299D01*
X63004605Y-86211763D01*
X63004658Y-86212118D01*
X63004572Y-86212130D01*
X62998425Y-86280891D01*
X62955567Y-86336072D01*
X62889679Y-86359322D01*
X62883032Y-86359500D01*
X48384000Y-86359500D01*
X48316961Y-86339815D01*
X48271206Y-86287011D01*
X48260000Y-86235500D01*
X48260000Y-84070000D01*
X52415000Y-84070000D01*
X52415000Y-84292844D01*
X52421401Y-84352372D01*
X52421403Y-84352379D01*
X52471645Y-84487086D01*
X52471649Y-84487093D01*
X52557809Y-84602187D01*
X52557812Y-84602190D01*
X52672906Y-84688350D01*
X52672913Y-84688354D01*
X52807620Y-84738596D01*
X52807627Y-84738598D01*
X52867155Y-84744999D01*
X52867172Y-84745000D01*
X53090000Y-84745000D01*
X53090000Y-84070000D01*
X52415000Y-84070000D01*
X48260000Y-84070000D01*
X48260000Y-83820000D01*
X53085102Y-83820000D01*
X53104505Y-83917545D01*
X53159760Y-84000240D01*
X53242455Y-84055495D01*
X53315376Y-84070000D01*
X53364624Y-84070000D01*
X53590000Y-84070000D01*
X53590000Y-84745000D01*
X53812828Y-84745000D01*
X53812844Y-84744999D01*
X53872372Y-84738598D01*
X53872379Y-84738596D01*
X54007086Y-84688354D01*
X54007093Y-84688350D01*
X54122187Y-84602190D01*
X54122190Y-84602187D01*
X54208350Y-84487093D01*
X54208354Y-84487086D01*
X54258596Y-84352379D01*
X54258598Y-84352372D01*
X54264999Y-84292844D01*
X54265000Y-84292827D01*
X54265000Y-84070000D01*
X53590000Y-84070000D01*
X53364624Y-84070000D01*
X53437545Y-84055495D01*
X53520240Y-84000240D01*
X53575495Y-83917545D01*
X53594898Y-83820000D01*
X53575495Y-83722455D01*
X53520240Y-83639760D01*
X53437545Y-83584505D01*
X53364624Y-83570000D01*
X53315376Y-83570000D01*
X53242455Y-83584505D01*
X53159760Y-83639760D01*
X53104505Y-83722455D01*
X53085102Y-83820000D01*
X48260000Y-83820000D01*
X48260000Y-83570000D01*
X52415000Y-83570000D01*
X53090000Y-83570000D01*
X53090000Y-82895000D01*
X53590000Y-82895000D01*
X53590000Y-83570000D01*
X54265000Y-83570000D01*
X54265000Y-83347172D01*
X54264999Y-83347155D01*
X54258598Y-83287627D01*
X54258596Y-83287620D01*
X54208354Y-83152913D01*
X54208350Y-83152906D01*
X54122190Y-83037812D01*
X54122187Y-83037809D01*
X54007093Y-82951649D01*
X54007086Y-82951645D01*
X53872379Y-82901403D01*
X53872372Y-82901401D01*
X53812844Y-82895000D01*
X53590000Y-82895000D01*
X53090000Y-82895000D01*
X52867155Y-82895000D01*
X52807627Y-82901401D01*
X52807620Y-82901403D01*
X52672913Y-82951645D01*
X52672906Y-82951649D01*
X52557812Y-83037809D01*
X52557809Y-83037812D01*
X52471649Y-83152906D01*
X52471645Y-83152913D01*
X52421403Y-83287620D01*
X52421401Y-83287627D01*
X52415000Y-83347155D01*
X52415000Y-83570000D01*
X48260000Y-83570000D01*
X48260000Y-81404000D01*
X48279685Y-81336961D01*
X48332489Y-81291206D01*
X48384000Y-81280000D01*
X57879688Y-81280000D01*
X57946727Y-81299685D01*
G37*
%TD.AperFunction*%
%TD*%
M02*
