%TF.GenerationSoftware,KiCad,Pcbnew,7.0.10*%
%TF.CreationDate,2024-02-08T23:12:59+01:00*%
%TF.ProjectId,dag-supply,6461672d-7375-4707-906c-792e6b696361,rev?*%
%TF.SameCoordinates,Original*%
%TF.FileFunction,Legend,Top*%
%TF.FilePolarity,Positive*%
%FSLAX46Y46*%
G04 Gerber Fmt 4.6, Leading zero omitted, Abs format (unit mm)*
G04 Created by KiCad (PCBNEW 7.0.10) date 2024-02-08 23:12:59*
%MOMM*%
%LPD*%
G01*
G04 APERTURE LIST*
%ADD10C,0.150000*%
%ADD11C,0.120000*%
%ADD12C,0.127000*%
%ADD13C,0.200000*%
G04 APERTURE END LIST*
D10*
X91440000Y-78740000D02*
X86360000Y-78740000D01*
X66519580Y-50926666D02*
X66567200Y-50974285D01*
X66567200Y-50974285D02*
X66614819Y-51117142D01*
X66614819Y-51117142D02*
X66614819Y-51212380D01*
X66614819Y-51212380D02*
X66567200Y-51355237D01*
X66567200Y-51355237D02*
X66471961Y-51450475D01*
X66471961Y-51450475D02*
X66376723Y-51498094D01*
X66376723Y-51498094D02*
X66186247Y-51545713D01*
X66186247Y-51545713D02*
X66043390Y-51545713D01*
X66043390Y-51545713D02*
X65852914Y-51498094D01*
X65852914Y-51498094D02*
X65757676Y-51450475D01*
X65757676Y-51450475D02*
X65662438Y-51355237D01*
X65662438Y-51355237D02*
X65614819Y-51212380D01*
X65614819Y-51212380D02*
X65614819Y-51117142D01*
X65614819Y-51117142D02*
X65662438Y-50974285D01*
X65662438Y-50974285D02*
X65710057Y-50926666D01*
X66614819Y-49974285D02*
X66614819Y-50545713D01*
X66614819Y-50259999D02*
X65614819Y-50259999D01*
X65614819Y-50259999D02*
X65757676Y-50355237D01*
X65757676Y-50355237D02*
X65852914Y-50450475D01*
X65852914Y-50450475D02*
X65900533Y-50545713D01*
X63333333Y-73934819D02*
X63000000Y-73458628D01*
X62761905Y-73934819D02*
X62761905Y-72934819D01*
X62761905Y-72934819D02*
X63142857Y-72934819D01*
X63142857Y-72934819D02*
X63238095Y-72982438D01*
X63238095Y-72982438D02*
X63285714Y-73030057D01*
X63285714Y-73030057D02*
X63333333Y-73125295D01*
X63333333Y-73125295D02*
X63333333Y-73268152D01*
X63333333Y-73268152D02*
X63285714Y-73363390D01*
X63285714Y-73363390D02*
X63238095Y-73411009D01*
X63238095Y-73411009D02*
X63142857Y-73458628D01*
X63142857Y-73458628D02*
X62761905Y-73458628D01*
X63666667Y-72934819D02*
X64285714Y-72934819D01*
X64285714Y-72934819D02*
X63952381Y-73315771D01*
X63952381Y-73315771D02*
X64095238Y-73315771D01*
X64095238Y-73315771D02*
X64190476Y-73363390D01*
X64190476Y-73363390D02*
X64238095Y-73411009D01*
X64238095Y-73411009D02*
X64285714Y-73506247D01*
X64285714Y-73506247D02*
X64285714Y-73744342D01*
X64285714Y-73744342D02*
X64238095Y-73839580D01*
X64238095Y-73839580D02*
X64190476Y-73887200D01*
X64190476Y-73887200D02*
X64095238Y-73934819D01*
X64095238Y-73934819D02*
X63809524Y-73934819D01*
X63809524Y-73934819D02*
X63714286Y-73887200D01*
X63714286Y-73887200D02*
X63666667Y-73839580D01*
X94679580Y-58546666D02*
X94727200Y-58594285D01*
X94727200Y-58594285D02*
X94774819Y-58737142D01*
X94774819Y-58737142D02*
X94774819Y-58832380D01*
X94774819Y-58832380D02*
X94727200Y-58975237D01*
X94727200Y-58975237D02*
X94631961Y-59070475D01*
X94631961Y-59070475D02*
X94536723Y-59118094D01*
X94536723Y-59118094D02*
X94346247Y-59165713D01*
X94346247Y-59165713D02*
X94203390Y-59165713D01*
X94203390Y-59165713D02*
X94012914Y-59118094D01*
X94012914Y-59118094D02*
X93917676Y-59070475D01*
X93917676Y-59070475D02*
X93822438Y-58975237D01*
X93822438Y-58975237D02*
X93774819Y-58832380D01*
X93774819Y-58832380D02*
X93774819Y-58737142D01*
X93774819Y-58737142D02*
X93822438Y-58594285D01*
X93822438Y-58594285D02*
X93870057Y-58546666D01*
X93774819Y-58213332D02*
X93774819Y-57594285D01*
X93774819Y-57594285D02*
X94155771Y-57927618D01*
X94155771Y-57927618D02*
X94155771Y-57784761D01*
X94155771Y-57784761D02*
X94203390Y-57689523D01*
X94203390Y-57689523D02*
X94251009Y-57641904D01*
X94251009Y-57641904D02*
X94346247Y-57594285D01*
X94346247Y-57594285D02*
X94584342Y-57594285D01*
X94584342Y-57594285D02*
X94679580Y-57641904D01*
X94679580Y-57641904D02*
X94727200Y-57689523D01*
X94727200Y-57689523D02*
X94774819Y-57784761D01*
X94774819Y-57784761D02*
X94774819Y-58070475D01*
X94774819Y-58070475D02*
X94727200Y-58165713D01*
X94727200Y-58165713D02*
X94679580Y-58213332D01*
X81979580Y-71246666D02*
X82027200Y-71294285D01*
X82027200Y-71294285D02*
X82074819Y-71437142D01*
X82074819Y-71437142D02*
X82074819Y-71532380D01*
X82074819Y-71532380D02*
X82027200Y-71675237D01*
X82027200Y-71675237D02*
X81931961Y-71770475D01*
X81931961Y-71770475D02*
X81836723Y-71818094D01*
X81836723Y-71818094D02*
X81646247Y-71865713D01*
X81646247Y-71865713D02*
X81503390Y-71865713D01*
X81503390Y-71865713D02*
X81312914Y-71818094D01*
X81312914Y-71818094D02*
X81217676Y-71770475D01*
X81217676Y-71770475D02*
X81122438Y-71675237D01*
X81122438Y-71675237D02*
X81074819Y-71532380D01*
X81074819Y-71532380D02*
X81074819Y-71437142D01*
X81074819Y-71437142D02*
X81122438Y-71294285D01*
X81122438Y-71294285D02*
X81170057Y-71246666D01*
X81074819Y-70341904D02*
X81074819Y-70818094D01*
X81074819Y-70818094D02*
X81551009Y-70865713D01*
X81551009Y-70865713D02*
X81503390Y-70818094D01*
X81503390Y-70818094D02*
X81455771Y-70722856D01*
X81455771Y-70722856D02*
X81455771Y-70484761D01*
X81455771Y-70484761D02*
X81503390Y-70389523D01*
X81503390Y-70389523D02*
X81551009Y-70341904D01*
X81551009Y-70341904D02*
X81646247Y-70294285D01*
X81646247Y-70294285D02*
X81884342Y-70294285D01*
X81884342Y-70294285D02*
X81979580Y-70341904D01*
X81979580Y-70341904D02*
X82027200Y-70389523D01*
X82027200Y-70389523D02*
X82074819Y-70484761D01*
X82074819Y-70484761D02*
X82074819Y-70722856D01*
X82074819Y-70722856D02*
X82027200Y-70818094D01*
X82027200Y-70818094D02*
X81979580Y-70865713D01*
X95103333Y-66229580D02*
X95055714Y-66277200D01*
X95055714Y-66277200D02*
X94912857Y-66324819D01*
X94912857Y-66324819D02*
X94817619Y-66324819D01*
X94817619Y-66324819D02*
X94674762Y-66277200D01*
X94674762Y-66277200D02*
X94579524Y-66181961D01*
X94579524Y-66181961D02*
X94531905Y-66086723D01*
X94531905Y-66086723D02*
X94484286Y-65896247D01*
X94484286Y-65896247D02*
X94484286Y-65753390D01*
X94484286Y-65753390D02*
X94531905Y-65562914D01*
X94531905Y-65562914D02*
X94579524Y-65467676D01*
X94579524Y-65467676D02*
X94674762Y-65372438D01*
X94674762Y-65372438D02*
X94817619Y-65324819D01*
X94817619Y-65324819D02*
X94912857Y-65324819D01*
X94912857Y-65324819D02*
X95055714Y-65372438D01*
X95055714Y-65372438D02*
X95103333Y-65420057D01*
X95960476Y-65658152D02*
X95960476Y-66324819D01*
X95722381Y-65277200D02*
X95484286Y-65991485D01*
X95484286Y-65991485D02*
X96103333Y-65991485D01*
X85598095Y-56144819D02*
X85598095Y-56954342D01*
X85598095Y-56954342D02*
X85645714Y-57049580D01*
X85645714Y-57049580D02*
X85693333Y-57097200D01*
X85693333Y-57097200D02*
X85788571Y-57144819D01*
X85788571Y-57144819D02*
X85979047Y-57144819D01*
X85979047Y-57144819D02*
X86074285Y-57097200D01*
X86074285Y-57097200D02*
X86121904Y-57049580D01*
X86121904Y-57049580D02*
X86169523Y-56954342D01*
X86169523Y-56954342D02*
X86169523Y-56144819D01*
X87169523Y-57144819D02*
X86598095Y-57144819D01*
X86883809Y-57144819D02*
X86883809Y-56144819D01*
X86883809Y-56144819D02*
X86788571Y-56287676D01*
X86788571Y-56287676D02*
X86693333Y-56382914D01*
X86693333Y-56382914D02*
X86598095Y-56430533D01*
X96186666Y-81714819D02*
X96186666Y-82429104D01*
X96186666Y-82429104D02*
X96139047Y-82571961D01*
X96139047Y-82571961D02*
X96043809Y-82667200D01*
X96043809Y-82667200D02*
X95900952Y-82714819D01*
X95900952Y-82714819D02*
X95805714Y-82714819D01*
X96615238Y-81810057D02*
X96662857Y-81762438D01*
X96662857Y-81762438D02*
X96758095Y-81714819D01*
X96758095Y-81714819D02*
X96996190Y-81714819D01*
X96996190Y-81714819D02*
X97091428Y-81762438D01*
X97091428Y-81762438D02*
X97139047Y-81810057D01*
X97139047Y-81810057D02*
X97186666Y-81905295D01*
X97186666Y-81905295D02*
X97186666Y-82000533D01*
X97186666Y-82000533D02*
X97139047Y-82143390D01*
X97139047Y-82143390D02*
X96567619Y-82714819D01*
X96567619Y-82714819D02*
X97186666Y-82714819D01*
X73326666Y-81714819D02*
X73326666Y-82429104D01*
X73326666Y-82429104D02*
X73279047Y-82571961D01*
X73279047Y-82571961D02*
X73183809Y-82667200D01*
X73183809Y-82667200D02*
X73040952Y-82714819D01*
X73040952Y-82714819D02*
X72945714Y-82714819D01*
X74326666Y-82714819D02*
X73755238Y-82714819D01*
X74040952Y-82714819D02*
X74040952Y-81714819D01*
X74040952Y-81714819D02*
X73945714Y-81857676D01*
X73945714Y-81857676D02*
X73850476Y-81952914D01*
X73850476Y-81952914D02*
X73755238Y-82000533D01*
X88693333Y-48959580D02*
X88645714Y-49007200D01*
X88645714Y-49007200D02*
X88502857Y-49054819D01*
X88502857Y-49054819D02*
X88407619Y-49054819D01*
X88407619Y-49054819D02*
X88264762Y-49007200D01*
X88264762Y-49007200D02*
X88169524Y-48911961D01*
X88169524Y-48911961D02*
X88121905Y-48816723D01*
X88121905Y-48816723D02*
X88074286Y-48626247D01*
X88074286Y-48626247D02*
X88074286Y-48483390D01*
X88074286Y-48483390D02*
X88121905Y-48292914D01*
X88121905Y-48292914D02*
X88169524Y-48197676D01*
X88169524Y-48197676D02*
X88264762Y-48102438D01*
X88264762Y-48102438D02*
X88407619Y-48054819D01*
X88407619Y-48054819D02*
X88502857Y-48054819D01*
X88502857Y-48054819D02*
X88645714Y-48102438D01*
X88645714Y-48102438D02*
X88693333Y-48150057D01*
X89074286Y-48150057D02*
X89121905Y-48102438D01*
X89121905Y-48102438D02*
X89217143Y-48054819D01*
X89217143Y-48054819D02*
X89455238Y-48054819D01*
X89455238Y-48054819D02*
X89550476Y-48102438D01*
X89550476Y-48102438D02*
X89598095Y-48150057D01*
X89598095Y-48150057D02*
X89645714Y-48245295D01*
X89645714Y-48245295D02*
X89645714Y-48340533D01*
X89645714Y-48340533D02*
X89598095Y-48483390D01*
X89598095Y-48483390D02*
X89026667Y-49054819D01*
X89026667Y-49054819D02*
X89645714Y-49054819D01*
X63333333Y-71754819D02*
X63000000Y-71278628D01*
X62761905Y-71754819D02*
X62761905Y-70754819D01*
X62761905Y-70754819D02*
X63142857Y-70754819D01*
X63142857Y-70754819D02*
X63238095Y-70802438D01*
X63238095Y-70802438D02*
X63285714Y-70850057D01*
X63285714Y-70850057D02*
X63333333Y-70945295D01*
X63333333Y-70945295D02*
X63333333Y-71088152D01*
X63333333Y-71088152D02*
X63285714Y-71183390D01*
X63285714Y-71183390D02*
X63238095Y-71231009D01*
X63238095Y-71231009D02*
X63142857Y-71278628D01*
X63142857Y-71278628D02*
X62761905Y-71278628D01*
X63714286Y-70850057D02*
X63761905Y-70802438D01*
X63761905Y-70802438D02*
X63857143Y-70754819D01*
X63857143Y-70754819D02*
X64095238Y-70754819D01*
X64095238Y-70754819D02*
X64190476Y-70802438D01*
X64190476Y-70802438D02*
X64238095Y-70850057D01*
X64238095Y-70850057D02*
X64285714Y-70945295D01*
X64285714Y-70945295D02*
X64285714Y-71040533D01*
X64285714Y-71040533D02*
X64238095Y-71183390D01*
X64238095Y-71183390D02*
X63666667Y-71754819D01*
X63666667Y-71754819D02*
X64285714Y-71754819D01*
X74234819Y-71858094D02*
X73234819Y-71858094D01*
X73234819Y-71858094D02*
X73234819Y-71619999D01*
X73234819Y-71619999D02*
X73282438Y-71477142D01*
X73282438Y-71477142D02*
X73377676Y-71381904D01*
X73377676Y-71381904D02*
X73472914Y-71334285D01*
X73472914Y-71334285D02*
X73663390Y-71286666D01*
X73663390Y-71286666D02*
X73806247Y-71286666D01*
X73806247Y-71286666D02*
X73996723Y-71334285D01*
X73996723Y-71334285D02*
X74091961Y-71381904D01*
X74091961Y-71381904D02*
X74187200Y-71477142D01*
X74187200Y-71477142D02*
X74234819Y-71619999D01*
X74234819Y-71619999D02*
X74234819Y-71858094D01*
X74234819Y-70334285D02*
X74234819Y-70905713D01*
X74234819Y-70619999D02*
X73234819Y-70619999D01*
X73234819Y-70619999D02*
X73377676Y-70715237D01*
X73377676Y-70715237D02*
X73472914Y-70810475D01*
X73472914Y-70810475D02*
X73520533Y-70905713D01*
X74654819Y-76461904D02*
X73654819Y-76461904D01*
X74654819Y-75890476D02*
X74083390Y-76319047D01*
X73654819Y-75890476D02*
X74226247Y-76461904D01*
X63333333Y-58694819D02*
X63000000Y-58218628D01*
X62761905Y-58694819D02*
X62761905Y-57694819D01*
X62761905Y-57694819D02*
X63142857Y-57694819D01*
X63142857Y-57694819D02*
X63238095Y-57742438D01*
X63238095Y-57742438D02*
X63285714Y-57790057D01*
X63285714Y-57790057D02*
X63333333Y-57885295D01*
X63333333Y-57885295D02*
X63333333Y-58028152D01*
X63333333Y-58028152D02*
X63285714Y-58123390D01*
X63285714Y-58123390D02*
X63238095Y-58171009D01*
X63238095Y-58171009D02*
X63142857Y-58218628D01*
X63142857Y-58218628D02*
X62761905Y-58218628D01*
X64285714Y-58694819D02*
X63714286Y-58694819D01*
X64000000Y-58694819D02*
X64000000Y-57694819D01*
X64000000Y-57694819D02*
X63904762Y-57837676D01*
X63904762Y-57837676D02*
X63809524Y-57932914D01*
X63809524Y-57932914D02*
X63714286Y-57980533D01*
X53006666Y-81714819D02*
X53006666Y-82429104D01*
X53006666Y-82429104D02*
X52959047Y-82571961D01*
X52959047Y-82571961D02*
X52863809Y-82667200D01*
X52863809Y-82667200D02*
X52720952Y-82714819D01*
X52720952Y-82714819D02*
X52625714Y-82714819D01*
X53387619Y-81714819D02*
X54006666Y-81714819D01*
X54006666Y-81714819D02*
X53673333Y-82095771D01*
X53673333Y-82095771D02*
X53816190Y-82095771D01*
X53816190Y-82095771D02*
X53911428Y-82143390D01*
X53911428Y-82143390D02*
X53959047Y-82191009D01*
X53959047Y-82191009D02*
X54006666Y-82286247D01*
X54006666Y-82286247D02*
X54006666Y-82524342D01*
X54006666Y-82524342D02*
X53959047Y-82619580D01*
X53959047Y-82619580D02*
X53911428Y-82667200D01*
X53911428Y-82667200D02*
X53816190Y-82714819D01*
X53816190Y-82714819D02*
X53530476Y-82714819D01*
X53530476Y-82714819D02*
X53435238Y-82667200D01*
X53435238Y-82667200D02*
X53387619Y-82619580D01*
X58160238Y-56366009D02*
X58303095Y-56413628D01*
X58303095Y-56413628D02*
X58350714Y-56461247D01*
X58350714Y-56461247D02*
X58398333Y-56556485D01*
X58398333Y-56556485D02*
X58398333Y-56699342D01*
X58398333Y-56699342D02*
X58350714Y-56794580D01*
X58350714Y-56794580D02*
X58303095Y-56842200D01*
X58303095Y-56842200D02*
X58207857Y-56889819D01*
X58207857Y-56889819D02*
X57826905Y-56889819D01*
X57826905Y-56889819D02*
X57826905Y-55889819D01*
X57826905Y-55889819D02*
X58160238Y-55889819D01*
X58160238Y-55889819D02*
X58255476Y-55937438D01*
X58255476Y-55937438D02*
X58303095Y-55985057D01*
X58303095Y-55985057D02*
X58350714Y-56080295D01*
X58350714Y-56080295D02*
X58350714Y-56175533D01*
X58350714Y-56175533D02*
X58303095Y-56270771D01*
X58303095Y-56270771D02*
X58255476Y-56318390D01*
X58255476Y-56318390D02*
X58160238Y-56366009D01*
X58160238Y-56366009D02*
X57826905Y-56366009D01*
X59398333Y-56889819D02*
X59065000Y-56413628D01*
X58826905Y-56889819D02*
X58826905Y-55889819D01*
X58826905Y-55889819D02*
X59207857Y-55889819D01*
X59207857Y-55889819D02*
X59303095Y-55937438D01*
X59303095Y-55937438D02*
X59350714Y-55985057D01*
X59350714Y-55985057D02*
X59398333Y-56080295D01*
X59398333Y-56080295D02*
X59398333Y-56223152D01*
X59398333Y-56223152D02*
X59350714Y-56318390D01*
X59350714Y-56318390D02*
X59303095Y-56366009D01*
X59303095Y-56366009D02*
X59207857Y-56413628D01*
X59207857Y-56413628D02*
X58826905Y-56413628D01*
X60350714Y-56889819D02*
X59779286Y-56889819D01*
X60065000Y-56889819D02*
X60065000Y-55889819D01*
X60065000Y-55889819D02*
X59969762Y-56032676D01*
X59969762Y-56032676D02*
X59874524Y-56127914D01*
X59874524Y-56127914D02*
X59779286Y-56175533D01*
D11*
%TO.C,C1*%
X70085000Y-57577082D02*
X70085000Y-56327082D01*
X69460000Y-56952082D02*
X70710000Y-56952082D01*
X67330000Y-50760000D02*
X79990000Y-50760000D01*
X67330000Y-50720000D02*
X79990000Y-50720000D01*
X67330000Y-50680000D02*
X79990000Y-50680000D01*
X67331000Y-50640000D02*
X79989000Y-50640000D01*
X67332000Y-50600000D02*
X79988000Y-50600000D01*
X67333000Y-50560000D02*
X79987000Y-50560000D01*
X67334000Y-50520000D02*
X79986000Y-50520000D01*
X67336000Y-50480000D02*
X79984000Y-50480000D01*
X67338000Y-50440000D02*
X79982000Y-50440000D01*
X67340000Y-50400000D02*
X79980000Y-50400000D01*
X67342000Y-50360000D02*
X79978000Y-50360000D01*
X67345000Y-50320000D02*
X79975000Y-50320000D01*
X67348000Y-50280000D02*
X79972000Y-50280000D01*
X67351000Y-50240000D02*
X79969000Y-50240000D01*
X67354000Y-50200000D02*
X79966000Y-50200000D01*
X67358000Y-50160000D02*
X79962000Y-50160000D01*
X67362000Y-50120000D02*
X79958000Y-50120000D01*
X67366000Y-50080000D02*
X79954000Y-50080000D01*
X67370000Y-50039000D02*
X79950000Y-50039000D01*
X67375000Y-49999000D02*
X79945000Y-49999000D01*
X67380000Y-49959000D02*
X79940000Y-49959000D01*
X67385000Y-49919000D02*
X79935000Y-49919000D01*
X67391000Y-49879000D02*
X79929000Y-49879000D01*
X67396000Y-49839000D02*
X79924000Y-49839000D01*
X67402000Y-49799000D02*
X79918000Y-49799000D01*
X67408000Y-49759000D02*
X79912000Y-49759000D01*
X67415000Y-49719000D02*
X79905000Y-49719000D01*
X67422000Y-49679000D02*
X72220000Y-49679000D01*
X75100000Y-49679000D02*
X79898000Y-49679000D01*
X67429000Y-49639000D02*
X72220000Y-49639000D01*
X75100000Y-49639000D02*
X79891000Y-49639000D01*
X67436000Y-49599000D02*
X72220000Y-49599000D01*
X75100000Y-49599000D02*
X79884000Y-49599000D01*
X67444000Y-49559000D02*
X72220000Y-49559000D01*
X75100000Y-49559000D02*
X79876000Y-49559000D01*
X67451000Y-49519000D02*
X72220000Y-49519000D01*
X75100000Y-49519000D02*
X79869000Y-49519000D01*
X67459000Y-49479000D02*
X72220000Y-49479000D01*
X75100000Y-49479000D02*
X79861000Y-49479000D01*
X67468000Y-49439000D02*
X72220000Y-49439000D01*
X75100000Y-49439000D02*
X79852000Y-49439000D01*
X67476000Y-49399000D02*
X72220000Y-49399000D01*
X75100000Y-49399000D02*
X79844000Y-49399000D01*
X67485000Y-49359000D02*
X72220000Y-49359000D01*
X75100000Y-49359000D02*
X79835000Y-49359000D01*
X67494000Y-49319000D02*
X72220000Y-49319000D01*
X75100000Y-49319000D02*
X79826000Y-49319000D01*
X67504000Y-49279000D02*
X72220000Y-49279000D01*
X75100000Y-49279000D02*
X79816000Y-49279000D01*
X67514000Y-49239000D02*
X72220000Y-49239000D01*
X75100000Y-49239000D02*
X79806000Y-49239000D01*
X67523000Y-49199000D02*
X72220000Y-49199000D01*
X75100000Y-49199000D02*
X79797000Y-49199000D01*
X67534000Y-49159000D02*
X72220000Y-49159000D01*
X75100000Y-49159000D02*
X79786000Y-49159000D01*
X67544000Y-49119000D02*
X72220000Y-49119000D01*
X75100000Y-49119000D02*
X79776000Y-49119000D01*
X67555000Y-49079000D02*
X72220000Y-49079000D01*
X75100000Y-49079000D02*
X79765000Y-49079000D01*
X67566000Y-49039000D02*
X72220000Y-49039000D01*
X75100000Y-49039000D02*
X79754000Y-49039000D01*
X67577000Y-48999000D02*
X72220000Y-48999000D01*
X75100000Y-48999000D02*
X79743000Y-48999000D01*
X67589000Y-48959000D02*
X72220000Y-48959000D01*
X75100000Y-48959000D02*
X79731000Y-48959000D01*
X67601000Y-48919000D02*
X72220000Y-48919000D01*
X75100000Y-48919000D02*
X79719000Y-48919000D01*
X67613000Y-48879000D02*
X72220000Y-48879000D01*
X75100000Y-48879000D02*
X79707000Y-48879000D01*
X67626000Y-48839000D02*
X72220000Y-48839000D01*
X75100000Y-48839000D02*
X79694000Y-48839000D01*
X67639000Y-48799000D02*
X72220000Y-48799000D01*
X75100000Y-48799000D02*
X79681000Y-48799000D01*
X67652000Y-48759000D02*
X72220000Y-48759000D01*
X75100000Y-48759000D02*
X79668000Y-48759000D01*
X67665000Y-48719000D02*
X72220000Y-48719000D01*
X75100000Y-48719000D02*
X79655000Y-48719000D01*
X67679000Y-48679000D02*
X72220000Y-48679000D01*
X75100000Y-48679000D02*
X79641000Y-48679000D01*
X67693000Y-48639000D02*
X72220000Y-48639000D01*
X75100000Y-48639000D02*
X79627000Y-48639000D01*
X67707000Y-48599000D02*
X72220000Y-48599000D01*
X75100000Y-48599000D02*
X79613000Y-48599000D01*
X67721000Y-48559000D02*
X72220000Y-48559000D01*
X75100000Y-48559000D02*
X79599000Y-48559000D01*
X67736000Y-48519000D02*
X72220000Y-48519000D01*
X75100000Y-48519000D02*
X79584000Y-48519000D01*
X67752000Y-48479000D02*
X72220000Y-48479000D01*
X75100000Y-48479000D02*
X79568000Y-48479000D01*
X67767000Y-48439000D02*
X72220000Y-48439000D01*
X75100000Y-48439000D02*
X79553000Y-48439000D01*
X67783000Y-48399000D02*
X72220000Y-48399000D01*
X75100000Y-48399000D02*
X79537000Y-48399000D01*
X67799000Y-48359000D02*
X72220000Y-48359000D01*
X75100000Y-48359000D02*
X79521000Y-48359000D01*
X67815000Y-48319000D02*
X72220000Y-48319000D01*
X75100000Y-48319000D02*
X79505000Y-48319000D01*
X67832000Y-48279000D02*
X72220000Y-48279000D01*
X75100000Y-48279000D02*
X79488000Y-48279000D01*
X67849000Y-48239000D02*
X72220000Y-48239000D01*
X75100000Y-48239000D02*
X79471000Y-48239000D01*
X67867000Y-48199000D02*
X72220000Y-48199000D01*
X75100000Y-48199000D02*
X79453000Y-48199000D01*
X67884000Y-48159000D02*
X72220000Y-48159000D01*
X75100000Y-48159000D02*
X79436000Y-48159000D01*
X67902000Y-48119000D02*
X72220000Y-48119000D01*
X75100000Y-48119000D02*
X79418000Y-48119000D01*
X67921000Y-48079000D02*
X72220000Y-48079000D01*
X75100000Y-48079000D02*
X79399000Y-48079000D01*
X67939000Y-48039000D02*
X72220000Y-48039000D01*
X75100000Y-48039000D02*
X79381000Y-48039000D01*
X67958000Y-47999000D02*
X72220000Y-47999000D01*
X75100000Y-47999000D02*
X79362000Y-47999000D01*
X67978000Y-47959000D02*
X72220000Y-47959000D01*
X75100000Y-47959000D02*
X79342000Y-47959000D01*
X67998000Y-47919000D02*
X72220000Y-47919000D01*
X75100000Y-47919000D02*
X79322000Y-47919000D01*
X68018000Y-47879000D02*
X72220000Y-47879000D01*
X75100000Y-47879000D02*
X79302000Y-47879000D01*
X68038000Y-47839000D02*
X72220000Y-47839000D01*
X75100000Y-47839000D02*
X79282000Y-47839000D01*
X68059000Y-47799000D02*
X72220000Y-47799000D01*
X75100000Y-47799000D02*
X79261000Y-47799000D01*
X68080000Y-47759000D02*
X72220000Y-47759000D01*
X75100000Y-47759000D02*
X79240000Y-47759000D01*
X68102000Y-47719000D02*
X72220000Y-47719000D01*
X75100000Y-47719000D02*
X79218000Y-47719000D01*
X68124000Y-47679000D02*
X72220000Y-47679000D01*
X75100000Y-47679000D02*
X79196000Y-47679000D01*
X68146000Y-47639000D02*
X72220000Y-47639000D01*
X75100000Y-47639000D02*
X79174000Y-47639000D01*
X68169000Y-47599000D02*
X72220000Y-47599000D01*
X75100000Y-47599000D02*
X79151000Y-47599000D01*
X68192000Y-47559000D02*
X72220000Y-47559000D01*
X75100000Y-47559000D02*
X79128000Y-47559000D01*
X68215000Y-47519000D02*
X72220000Y-47519000D01*
X75100000Y-47519000D02*
X79105000Y-47519000D01*
X68239000Y-47479000D02*
X72220000Y-47479000D01*
X75100000Y-47479000D02*
X79081000Y-47479000D01*
X68263000Y-47439000D02*
X72220000Y-47439000D01*
X75100000Y-47439000D02*
X79057000Y-47439000D01*
X68288000Y-47399000D02*
X72220000Y-47399000D01*
X75100000Y-47399000D02*
X79032000Y-47399000D01*
X68313000Y-47359000D02*
X72220000Y-47359000D01*
X75100000Y-47359000D02*
X79007000Y-47359000D01*
X68338000Y-47319000D02*
X72220000Y-47319000D01*
X75100000Y-47319000D02*
X78982000Y-47319000D01*
X68364000Y-47279000D02*
X72220000Y-47279000D01*
X75100000Y-47279000D02*
X78956000Y-47279000D01*
X68390000Y-47239000D02*
X72220000Y-47239000D01*
X75100000Y-47239000D02*
X78930000Y-47239000D01*
X68417000Y-47199000D02*
X72220000Y-47199000D01*
X75100000Y-47199000D02*
X78903000Y-47199000D01*
X68444000Y-47159000D02*
X72220000Y-47159000D01*
X75100000Y-47159000D02*
X78876000Y-47159000D01*
X68472000Y-47119000D02*
X72220000Y-47119000D01*
X75100000Y-47119000D02*
X78848000Y-47119000D01*
X68500000Y-47079000D02*
X72220000Y-47079000D01*
X75100000Y-47079000D02*
X78820000Y-47079000D01*
X68529000Y-47039000D02*
X72220000Y-47039000D01*
X75100000Y-47039000D02*
X78791000Y-47039000D01*
X68558000Y-46999000D02*
X72220000Y-46999000D01*
X75100000Y-46999000D02*
X78762000Y-46999000D01*
X68587000Y-46959000D02*
X72220000Y-46959000D01*
X75100000Y-46959000D02*
X78733000Y-46959000D01*
X68617000Y-46919000D02*
X72220000Y-46919000D01*
X75100000Y-46919000D02*
X78703000Y-46919000D01*
X68648000Y-46879000D02*
X72220000Y-46879000D01*
X75100000Y-46879000D02*
X78672000Y-46879000D01*
X68678000Y-46839000D02*
X72220000Y-46839000D01*
X75100000Y-46839000D02*
X78642000Y-46839000D01*
X68710000Y-46799000D02*
X78610000Y-46799000D01*
X68742000Y-46759000D02*
X78578000Y-46759000D01*
X68775000Y-46719000D02*
X78545000Y-46719000D01*
X68808000Y-46679000D02*
X78512000Y-46679000D01*
X68841000Y-46639000D02*
X78479000Y-46639000D01*
X68875000Y-46599000D02*
X78445000Y-46599000D01*
X68910000Y-46559000D02*
X78410000Y-46559000D01*
X68946000Y-46519000D02*
X78374000Y-46519000D01*
X68982000Y-46479000D02*
X78338000Y-46479000D01*
X69018000Y-46439000D02*
X78302000Y-46439000D01*
X69055000Y-46399000D02*
X78265000Y-46399000D01*
X69093000Y-46359000D02*
X78227000Y-46359000D01*
X69132000Y-46319000D02*
X78188000Y-46319000D01*
X69171000Y-46279000D02*
X78149000Y-46279000D01*
X69211000Y-46239000D02*
X78109000Y-46239000D01*
X69252000Y-46199000D02*
X78068000Y-46199000D01*
X69293000Y-46159000D02*
X78027000Y-46159000D01*
X69335000Y-46119000D02*
X77985000Y-46119000D01*
X69378000Y-46079000D02*
X77942000Y-46079000D01*
X69422000Y-46039000D02*
X77898000Y-46039000D01*
X69466000Y-45999000D02*
X77854000Y-45999000D01*
X69512000Y-45959000D02*
X77808000Y-45959000D01*
X69558000Y-45919000D02*
X77762000Y-45919000D01*
X69605000Y-45879000D02*
X77715000Y-45879000D01*
X69653000Y-45839000D02*
X77667000Y-45839000D01*
X69703000Y-45799000D02*
X77617000Y-45799000D01*
X69753000Y-45759000D02*
X77567000Y-45759000D01*
X69804000Y-45719000D02*
X77516000Y-45719000D01*
X69856000Y-45679000D02*
X77464000Y-45679000D01*
X69910000Y-45639000D02*
X77410000Y-45639000D01*
X69964000Y-45599000D02*
X77356000Y-45599000D01*
X70020000Y-45559000D02*
X77300000Y-45559000D01*
X70077000Y-45519000D02*
X77243000Y-45519000D01*
X70136000Y-45479000D02*
X77184000Y-45479000D01*
X70196000Y-45439000D02*
X77124000Y-45439000D01*
X70258000Y-45399000D02*
X77062000Y-45399000D01*
X70321000Y-45359000D02*
X76999000Y-45359000D01*
X70385000Y-45319000D02*
X76935000Y-45319000D01*
X70452000Y-45279000D02*
X76868000Y-45279000D01*
X70520000Y-45239000D02*
X76800000Y-45239000D01*
X70591000Y-45199000D02*
X76729000Y-45199000D01*
X70664000Y-45159000D02*
X76656000Y-45159000D01*
X70739000Y-45119000D02*
X76581000Y-45119000D01*
X70816000Y-45079000D02*
X76504000Y-45079000D01*
X70896000Y-45039000D02*
X76424000Y-45039000D01*
X70979000Y-44999000D02*
X76341000Y-44999000D01*
X71066000Y-44959000D02*
X76254000Y-44959000D01*
X71156000Y-44919000D02*
X76164000Y-44919000D01*
X71250000Y-44879000D02*
X76070000Y-44879000D01*
X71348000Y-44839000D02*
X75972000Y-44839000D01*
X71451000Y-44799000D02*
X75869000Y-44799000D01*
X71560000Y-44759000D02*
X75760000Y-44759000D01*
X71676000Y-44719000D02*
X75644000Y-44719000D01*
X71799000Y-44679000D02*
X75521000Y-44679000D01*
X71932000Y-44639000D02*
X75388000Y-44639000D01*
X72077000Y-44599000D02*
X75243000Y-44599000D01*
X72238000Y-44559000D02*
X75082000Y-44559000D01*
X72419000Y-44519000D02*
X74901000Y-44519000D01*
X72632000Y-44479000D02*
X74688000Y-44479000D01*
X72903000Y-44439000D02*
X74417000Y-44439000D01*
X73343000Y-44399000D02*
X73977000Y-44399000D01*
X80030000Y-50760000D02*
G75*
G03*
X67290000Y-50760000I-6370000J0D01*
G01*
X67290000Y-50760000D02*
G75*
G03*
X80030000Y-50760000I6370000J0D01*
G01*
%TO.C,R3*%
X56920000Y-76200000D02*
X58880000Y-76200000D01*
X58880000Y-74480000D02*
X58880000Y-77920000D01*
X58880000Y-77920000D02*
X68120000Y-77920000D01*
X68120000Y-74480000D02*
X58880000Y-74480000D01*
X68120000Y-77920000D02*
X68120000Y-74480000D01*
X70080000Y-76200000D02*
X68120000Y-76200000D01*
%TO.C,C3*%
X95450000Y-60650000D02*
X95465000Y-60650000D01*
X95450000Y-60650000D02*
X95450000Y-56110000D01*
X97575000Y-60650000D02*
X97590000Y-60650000D01*
X97590000Y-60650000D02*
X97590000Y-56110000D01*
X95450000Y-56110000D02*
X95465000Y-56110000D01*
X97575000Y-56110000D02*
X97590000Y-56110000D01*
%TO.C,C5*%
X82750000Y-73350000D02*
X82765000Y-73350000D01*
X82750000Y-73350000D02*
X82750000Y-68810000D01*
X84875000Y-73350000D02*
X84890000Y-73350000D01*
X84890000Y-73350000D02*
X84890000Y-68810000D01*
X82750000Y-68810000D02*
X82765000Y-68810000D01*
X84875000Y-68810000D02*
X84890000Y-68810000D01*
%TO.C,C4*%
X90860302Y-68805000D02*
X91660302Y-68805000D01*
X91260302Y-68405000D02*
X91260302Y-69205000D01*
X95270000Y-67040000D02*
X95270000Y-75200000D01*
X95310000Y-67040000D02*
X95310000Y-75200000D01*
X95350000Y-67040000D02*
X95350000Y-75200000D01*
X95390000Y-67041000D02*
X95390000Y-75199000D01*
X95430000Y-67043000D02*
X95430000Y-75197000D01*
X95470000Y-67044000D02*
X95470000Y-75196000D01*
X95510000Y-67046000D02*
X95510000Y-70080000D01*
X95510000Y-72160000D02*
X95510000Y-75194000D01*
X95550000Y-67049000D02*
X95550000Y-70080000D01*
X95550000Y-72160000D02*
X95550000Y-75191000D01*
X95590000Y-67052000D02*
X95590000Y-70080000D01*
X95590000Y-72160000D02*
X95590000Y-75188000D01*
X95630000Y-67055000D02*
X95630000Y-70080000D01*
X95630000Y-72160000D02*
X95630000Y-75185000D01*
X95670000Y-67059000D02*
X95670000Y-70080000D01*
X95670000Y-72160000D02*
X95670000Y-75181000D01*
X95710000Y-67063000D02*
X95710000Y-70080000D01*
X95710000Y-72160000D02*
X95710000Y-75177000D01*
X95750000Y-67068000D02*
X95750000Y-70080000D01*
X95750000Y-72160000D02*
X95750000Y-75172000D01*
X95790000Y-67072000D02*
X95790000Y-70080000D01*
X95790000Y-72160000D02*
X95790000Y-75168000D01*
X95830000Y-67078000D02*
X95830000Y-70080000D01*
X95830000Y-72160000D02*
X95830000Y-75162000D01*
X95870000Y-67083000D02*
X95870000Y-70080000D01*
X95870000Y-72160000D02*
X95870000Y-75157000D01*
X95910000Y-67090000D02*
X95910000Y-70080000D01*
X95910000Y-72160000D02*
X95910000Y-75150000D01*
X95950000Y-67096000D02*
X95950000Y-70080000D01*
X95950000Y-72160000D02*
X95950000Y-75144000D01*
X95991000Y-67103000D02*
X95991000Y-70080000D01*
X95991000Y-72160000D02*
X95991000Y-75137000D01*
X96031000Y-67110000D02*
X96031000Y-70080000D01*
X96031000Y-72160000D02*
X96031000Y-75130000D01*
X96071000Y-67118000D02*
X96071000Y-70080000D01*
X96071000Y-72160000D02*
X96071000Y-75122000D01*
X96111000Y-67126000D02*
X96111000Y-70080000D01*
X96111000Y-72160000D02*
X96111000Y-75114000D01*
X96151000Y-67135000D02*
X96151000Y-70080000D01*
X96151000Y-72160000D02*
X96151000Y-75105000D01*
X96191000Y-67144000D02*
X96191000Y-70080000D01*
X96191000Y-72160000D02*
X96191000Y-75096000D01*
X96231000Y-67153000D02*
X96231000Y-70080000D01*
X96231000Y-72160000D02*
X96231000Y-75087000D01*
X96271000Y-67163000D02*
X96271000Y-70080000D01*
X96271000Y-72160000D02*
X96271000Y-75077000D01*
X96311000Y-67173000D02*
X96311000Y-70080000D01*
X96311000Y-72160000D02*
X96311000Y-75067000D01*
X96351000Y-67184000D02*
X96351000Y-70080000D01*
X96351000Y-72160000D02*
X96351000Y-75056000D01*
X96391000Y-67195000D02*
X96391000Y-70080000D01*
X96391000Y-72160000D02*
X96391000Y-75045000D01*
X96431000Y-67206000D02*
X96431000Y-70080000D01*
X96431000Y-72160000D02*
X96431000Y-75034000D01*
X96471000Y-67218000D02*
X96471000Y-70080000D01*
X96471000Y-72160000D02*
X96471000Y-75022000D01*
X96511000Y-67231000D02*
X96511000Y-70080000D01*
X96511000Y-72160000D02*
X96511000Y-75009000D01*
X96551000Y-67243000D02*
X96551000Y-70080000D01*
X96551000Y-72160000D02*
X96551000Y-74997000D01*
X96591000Y-67257000D02*
X96591000Y-70080000D01*
X96591000Y-72160000D02*
X96591000Y-74983000D01*
X96631000Y-67270000D02*
X96631000Y-70080000D01*
X96631000Y-72160000D02*
X96631000Y-74970000D01*
X96671000Y-67285000D02*
X96671000Y-70080000D01*
X96671000Y-72160000D02*
X96671000Y-74955000D01*
X96711000Y-67299000D02*
X96711000Y-70080000D01*
X96711000Y-72160000D02*
X96711000Y-74941000D01*
X96751000Y-67315000D02*
X96751000Y-70080000D01*
X96751000Y-72160000D02*
X96751000Y-74925000D01*
X96791000Y-67330000D02*
X96791000Y-70080000D01*
X96791000Y-72160000D02*
X96791000Y-74910000D01*
X96831000Y-67346000D02*
X96831000Y-70080000D01*
X96831000Y-72160000D02*
X96831000Y-74894000D01*
X96871000Y-67363000D02*
X96871000Y-70080000D01*
X96871000Y-72160000D02*
X96871000Y-74877000D01*
X96911000Y-67380000D02*
X96911000Y-70080000D01*
X96911000Y-72160000D02*
X96911000Y-74860000D01*
X96951000Y-67398000D02*
X96951000Y-70080000D01*
X96951000Y-72160000D02*
X96951000Y-74842000D01*
X96991000Y-67416000D02*
X96991000Y-70080000D01*
X96991000Y-72160000D02*
X96991000Y-74824000D01*
X97031000Y-67434000D02*
X97031000Y-70080000D01*
X97031000Y-72160000D02*
X97031000Y-74806000D01*
X97071000Y-67454000D02*
X97071000Y-70080000D01*
X97071000Y-72160000D02*
X97071000Y-74786000D01*
X97111000Y-67473000D02*
X97111000Y-70080000D01*
X97111000Y-72160000D02*
X97111000Y-74767000D01*
X97151000Y-67493000D02*
X97151000Y-70080000D01*
X97151000Y-72160000D02*
X97151000Y-74747000D01*
X97191000Y-67514000D02*
X97191000Y-70080000D01*
X97191000Y-72160000D02*
X97191000Y-74726000D01*
X97231000Y-67536000D02*
X97231000Y-70080000D01*
X97231000Y-72160000D02*
X97231000Y-74704000D01*
X97271000Y-67558000D02*
X97271000Y-70080000D01*
X97271000Y-72160000D02*
X97271000Y-74682000D01*
X97311000Y-67580000D02*
X97311000Y-70080000D01*
X97311000Y-72160000D02*
X97311000Y-74660000D01*
X97351000Y-67603000D02*
X97351000Y-70080000D01*
X97351000Y-72160000D02*
X97351000Y-74637000D01*
X97391000Y-67627000D02*
X97391000Y-70080000D01*
X97391000Y-72160000D02*
X97391000Y-74613000D01*
X97431000Y-67651000D02*
X97431000Y-70080000D01*
X97431000Y-72160000D02*
X97431000Y-74589000D01*
X97471000Y-67676000D02*
X97471000Y-70080000D01*
X97471000Y-72160000D02*
X97471000Y-74564000D01*
X97511000Y-67702000D02*
X97511000Y-70080000D01*
X97511000Y-72160000D02*
X97511000Y-74538000D01*
X97551000Y-67728000D02*
X97551000Y-70080000D01*
X97551000Y-72160000D02*
X97551000Y-74512000D01*
X97591000Y-67755000D02*
X97591000Y-74485000D01*
X97631000Y-67782000D02*
X97631000Y-74458000D01*
X97671000Y-67811000D02*
X97671000Y-74429000D01*
X97711000Y-67840000D02*
X97711000Y-74400000D01*
X97751000Y-67870000D02*
X97751000Y-74370000D01*
X97791000Y-67900000D02*
X97791000Y-74340000D01*
X97831000Y-67931000D02*
X97831000Y-74309000D01*
X97871000Y-67964000D02*
X97871000Y-74276000D01*
X97911000Y-67996000D02*
X97911000Y-74244000D01*
X97951000Y-68030000D02*
X97951000Y-74210000D01*
X97991000Y-68065000D02*
X97991000Y-74175000D01*
X98031000Y-68101000D02*
X98031000Y-74139000D01*
X98071000Y-68137000D02*
X98071000Y-74103000D01*
X98111000Y-68175000D02*
X98111000Y-74065000D01*
X98151000Y-68213000D02*
X98151000Y-74027000D01*
X98191000Y-68253000D02*
X98191000Y-73987000D01*
X98231000Y-68294000D02*
X98231000Y-73946000D01*
X98271000Y-68336000D02*
X98271000Y-73904000D01*
X98311000Y-68379000D02*
X98311000Y-73861000D01*
X98351000Y-68423000D02*
X98351000Y-73817000D01*
X98391000Y-68469000D02*
X98391000Y-73771000D01*
X98431000Y-68516000D02*
X98431000Y-73724000D01*
X98471000Y-68564000D02*
X98471000Y-73676000D01*
X98511000Y-68615000D02*
X98511000Y-73625000D01*
X98551000Y-68666000D02*
X98551000Y-73574000D01*
X98591000Y-68720000D02*
X98591000Y-73520000D01*
X98631000Y-68775000D02*
X98631000Y-73465000D01*
X98671000Y-68833000D02*
X98671000Y-73407000D01*
X98711000Y-68892000D02*
X98711000Y-73348000D01*
X98751000Y-68954000D02*
X98751000Y-73286000D01*
X98791000Y-69018000D02*
X98791000Y-73222000D01*
X98831000Y-69086000D02*
X98831000Y-73154000D01*
X98871000Y-69156000D02*
X98871000Y-73084000D01*
X98911000Y-69230000D02*
X98911000Y-73010000D01*
X98951000Y-69307000D02*
X98951000Y-72933000D01*
X98991000Y-69389000D02*
X98991000Y-72851000D01*
X99031000Y-69475000D02*
X99031000Y-72765000D01*
X99071000Y-69568000D02*
X99071000Y-72672000D01*
X99111000Y-69667000D02*
X99111000Y-72573000D01*
X99151000Y-69774000D02*
X99151000Y-72466000D01*
X99191000Y-69891000D02*
X99191000Y-72349000D01*
X99231000Y-70022000D02*
X99231000Y-72218000D01*
X99271000Y-70172000D02*
X99271000Y-72068000D01*
X99311000Y-70352000D02*
X99311000Y-71888000D01*
X99351000Y-70587000D02*
X99351000Y-71653000D01*
X99390000Y-71120000D02*
G75*
G03*
X91150000Y-71120000I-4120000J0D01*
G01*
X91150000Y-71120000D02*
G75*
G03*
X99390000Y-71120000I4120000J0D01*
G01*
%TO.C,U1*%
X81240000Y-57690000D02*
X81240000Y-62331000D01*
X81240000Y-57690000D02*
X91480000Y-57690000D01*
X81240000Y-59200000D02*
X91480000Y-59200000D01*
X81240000Y-62331000D02*
X91480000Y-62331000D01*
X84510000Y-57690000D02*
X84510000Y-59200000D01*
X88211000Y-57690000D02*
X88211000Y-59200000D01*
X91480000Y-57690000D02*
X91480000Y-62331000D01*
%TO.C,J2*%
X95825000Y-83135000D02*
X96520000Y-83135000D01*
X95825000Y-83820000D02*
X95825000Y-83135000D01*
X95825000Y-84505000D02*
X95825000Y-84380000D01*
X95825000Y-84505000D02*
X95911724Y-84505000D01*
X95825000Y-84505000D02*
X97215000Y-84505000D01*
X97128276Y-84505000D02*
X97215000Y-84505000D01*
X97215000Y-84505000D02*
X97215000Y-84380000D01*
%TO.C,J1*%
X72965000Y-83135000D02*
X73660000Y-83135000D01*
X72965000Y-83820000D02*
X72965000Y-83135000D01*
X72965000Y-84505000D02*
X72965000Y-84380000D01*
X72965000Y-84505000D02*
X73051724Y-84505000D01*
X72965000Y-84505000D02*
X74355000Y-84505000D01*
X74268276Y-84505000D02*
X74355000Y-84505000D01*
X74355000Y-84505000D02*
X74355000Y-84380000D01*
%TO.C,C2*%
X86590000Y-49730000D02*
X86590000Y-49745000D01*
X86590000Y-49730000D02*
X91130000Y-49730000D01*
X86590000Y-51855000D02*
X86590000Y-51870000D01*
X86590000Y-51870000D02*
X91130000Y-51870000D01*
X91130000Y-49730000D02*
X91130000Y-49745000D01*
X91130000Y-51855000D02*
X91130000Y-51870000D01*
%TO.C,R2*%
X70080000Y-68580000D02*
X68120000Y-68580000D01*
X68120000Y-70300000D02*
X68120000Y-66860000D01*
X68120000Y-66860000D02*
X58880000Y-66860000D01*
X58880000Y-70300000D02*
X68120000Y-70300000D01*
X58880000Y-66860000D02*
X58880000Y-70300000D01*
X56920000Y-68580000D02*
X58880000Y-68580000D01*
%TO.C,D1*%
X76200000Y-74960000D02*
X76200000Y-72840000D01*
X74780000Y-72840000D02*
X77620000Y-72840000D01*
X77620000Y-72840000D02*
X77620000Y-69400000D01*
X74780000Y-72360000D02*
X77620000Y-72360000D01*
X74780000Y-72240000D02*
X77620000Y-72240000D01*
X74780000Y-72120000D02*
X77620000Y-72120000D01*
X74780000Y-69400000D02*
X74780000Y-72840000D01*
X77620000Y-69400000D02*
X74780000Y-69400000D01*
X76200000Y-67280000D02*
X76200000Y-69400000D01*
%TO.C,R1*%
X56920000Y-60960000D02*
X58880000Y-60960000D01*
X58880000Y-59240000D02*
X58880000Y-62680000D01*
X58880000Y-62680000D02*
X68120000Y-62680000D01*
X68120000Y-59240000D02*
X58880000Y-59240000D01*
X68120000Y-62680000D02*
X68120000Y-59240000D01*
X70080000Y-60960000D02*
X68120000Y-60960000D01*
%TO.C,J3*%
X52645000Y-83135000D02*
X53340000Y-83135000D01*
X52645000Y-83820000D02*
X52645000Y-83135000D01*
X52645000Y-84505000D02*
X52645000Y-84380000D01*
X52645000Y-84505000D02*
X52731724Y-84505000D01*
X52645000Y-84505000D02*
X54035000Y-84505000D01*
X53948276Y-84505000D02*
X54035000Y-84505000D01*
X54035000Y-84505000D02*
X54035000Y-84380000D01*
D12*
%TO.C,BR1*%
X61595000Y-54950000D02*
X55245000Y-54950000D01*
X61595000Y-46650000D02*
X55245000Y-46650000D01*
D13*
X63715000Y-53350000D02*
G75*
G03*
X63515000Y-53350000I-100000J0D01*
G01*
X63515000Y-53350000D02*
G75*
G03*
X63715000Y-53350000I100000J0D01*
G01*
%TD*%
M02*
